<?xml version="1.0" standalone="no"?>
<!DOCTYPE svg PUBLIC "-//W3C//DTD SVG 1.1//EN" "http://www.w3.org/Graphics/SVG/1.1/DTD/svg11.dtd" >
<svg xmlns="http://www.w3.org/2000/svg">
<metadata></metadata>
<defs>
<font id="fengardo_neueregular" horiz-adv-x="1239" >
<font-face units-per-em="2048" ascent="1475" descent="-573" />
<missing-glyph horiz-adv-x="593" />
<glyph unicode="&#xfb01;" horiz-adv-x="1112" d="M35 870v123h143v158q0 190 88 287.5t226 97.5q114 0 194 -66l-55 -116q-47 28 -129 28q-75 0 -112.5 -55.5t-37.5 -185.5v-148h572v-735q0 -76 30 -105.5t103 -29.5v-123q-46 -13 -88.5 -15.5t-83 8t-70 34.5t-47.5 67.5t-18 102.5v673h-398v-870h-174v870h-143z M719 1356q0 51 33 85t82 34q52 0 86 -34t34 -85t-34 -84t-86 -33q-50 0 -82.5 33t-32.5 84z" />
<glyph unicode="&#xfb02;" horiz-adv-x="1142" d="M35 870v123h143v148q0 96 31 173t83 124.5t117 72.5t136 25q138 0 229 -70l170 70v-1280q0 -75 30 -104t103 -29v-123q-43 -13 -85 -15.5t-82.5 7.5t-71 33.5t-49.5 67t-19 102.5v1140q-7 6 -21 16t-66 26t-114 16q-211 0 -217 -252v-148h246v-123h-246v-870h-174v870 h-143z" />
<glyph unicode="&#xfb03;" horiz-adv-x="1716" d="M35 870v123h143v158q0 189 94 287t236 98t219 -61l-27 -121q-77 39 -159 39q-94 0 -141.5 -57.5t-47.5 -194.5v-148h430v158q0 190 88 287.5t226 97.5q114 0 194 -66l-55 -116q-47 28 -129 28q-75 0 -112.5 -55.5t-37.5 -185.5v-148h572v-735q0 -76 30 -105.5t103 -29.5 v-123q-46 -13 -88.5 -15.5t-83 8t-70 34.5t-47.5 67.5t-18 102.5v673h-398v-870h-174v870h-430v-870h-174v870h-143zM1323 1356q0 51 33 85t82 34q52 0 86.5 -34t34.5 -85t-34 -84t-87 -33q-50 0 -82.5 33t-32.5 84z" />
<glyph unicode="&#xfb04;" horiz-adv-x="1746" d="M35 870v123h143v158q0 189 94 287t236 98t219 -61l-27 -121q-77 39 -159 39q-94 0 -141.5 -57.5t-47.5 -194.5v-148h430v148q0 96 31 173t83 124.5t117 72.5t136 25q138 0 229 -70l170 70v-1280q0 -75 30 -104t103 -29v-123q-43 -13 -85 -15.5t-82.5 7.5t-71 33.5 t-49.5 67t-19 102.5v1140q-7 6 -21 16t-65.5 26t-113.5 16q-212 0 -218 -252v-148h246v-123h-246v-870h-174v870h-430v-870h-174v870h-143z" />
<glyph horiz-adv-x="2048" />
<glyph horiz-adv-x="2048" />
<glyph unicode="&#xd;" horiz-adv-x="2048" />
<glyph unicode=" "  horiz-adv-x="593" />
<glyph unicode="&#x09;" horiz-adv-x="593" />
<glyph unicode="&#xa0;" horiz-adv-x="593" />
<glyph unicode="!" horiz-adv-x="442" d="M92 94q0 56 36.5 93.5t90.5 37.5q55 0 93 -37.5t38 -93.5q0 -54 -37.5 -89.5t-93.5 -35.5q-54 0 -90.5 35.5t-36.5 89.5zM123 1434l199 30l-39 -1106h-123z" />
<glyph unicode="&#x22;" horiz-adv-x="655" d="M96 1415l180 70v-543h-116q-44 272 -64 473zM379 942v473l180 70l-63 -543h-117z" />
<glyph unicode="#" horiz-adv-x="1187" d="M45 375l8 108h266l29 287h-270l6 109h274l37 350h127l-39 -350h277l37 350h125l-37 -350h258l-6 -109h-260l-27 -287h262l-8 -108h-266l-37 -375h-125l37 375h-277l-39 -375h-125l37 375h-264zM446 483h277l27 287h-275z" />
<glyph unicode="$" horiz-adv-x="1134" d="M160 430l153 10q10 -114 90.5 -169.5t196.5 -55.5q103 0 164 48.5t61 139.5q0 24 -3.5 43.5t-14 37t-19.5 30.5t-29.5 27t-34.5 23t-44.5 23t-49 22t-58 24t-62.5 26q-64 27 -106 48.5t-88 54.5t-72.5 69t-44 88t-17.5 115q0 141 92.5 234t239.5 112v162l143 55v-219 q137 -22 222 -110.5t77 -241.5l-153 -10q0 107 -63 166t-165 59q-93 0 -156 -48.5t-63 -143.5q0 -25 6 -48t20.5 -43t27.5 -35t39 -31.5t42 -26.5t50 -25t49.5 -21.5t52.5 -21.5q99 -40 160.5 -74t108.5 -78.5t67 -99.5t20 -129q0 -98 -47 -172.5t-120 -115t-164 -52.5v-154 l-144 -55v209q-158 18 -259.5 109t-104.5 245z" />
<glyph unicode="%" horiz-adv-x="1794" d="M147 1171q0 131 85.5 212t218.5 81t218 -81t85 -212q0 -129 -88 -210.5t-215 -81.5q-133 0 -218.5 80.5t-85.5 211.5zM303 0l1016 1434h164l-1014 -1434h-166zM303 1171q0 -79 41.5 -123t106.5 -44q67 0 108 43.5t41 123.5q0 81 -41 125.5t-108 44.5q-65 0 -106.5 -44.5 t-41.5 -125.5zM1040 262q0 131 85 212t218 81t218.5 -81t85.5 -212q0 -129 -88.5 -211t-215.5 -82q-133 0 -218 81t-85 212zM1196 262q0 -79 41 -123.5t106 -44.5q67 0 108.5 44t41.5 124q0 81 -41.5 125.5t-108.5 44.5q-65 0 -106 -44.5t-41 -125.5z" />
<glyph unicode="&#x26;" horiz-adv-x="1376" d="M133 416q0 77 25 142t67.5 110.5t92 76t106.5 50.5q-94 26 -156.5 109t-62.5 200q0 153 113.5 256.5t308.5 103.5q177 0 287 -106t98 -273l-164 -10q0 109 -61.5 172.5t-163.5 63.5q-108 0 -171 -54t-63 -153q0 -115 62.5 -174.5t179.5 -65.5h43v-143h-45 q-140 0 -226 -89.5t-86 -215.5q0 -141 92 -217t242 -76q178 0 268.5 117t90.5 315v166h-164v143h500v-143h-177q5 -66 5 -166q0 -116 -33 -220.5t-96.5 -186.5t-165 -130.5t-228.5 -48.5q-231 0 -374.5 122.5t-143.5 324.5z" />
<glyph unicode="'" horiz-adv-x="374" d="M96 1415l183 70q-3 -60 -12.5 -195.5t-18.5 -241.5l-8 -106h-117q-25 344 -27 473z" />
<glyph unicode="(" horiz-adv-x="712" d="M147 602q0 240 84.5 486t243.5 452l111 -65q-129 -170 -207 -398.5t-78 -470.5q0 -236 77 -453.5t206 -388.5l-109 -75q-156 188 -242 428t-86 485z" />
<glyph unicode=")" horiz-adv-x="712" d="M139 1475l111 65q159 -206 243.5 -452t84.5 -486q0 -245 -86 -485t-242 -428l-109 75q129 171 206 388.5t77 453.5q0 242 -78 470.5t-207 398.5z" />
<glyph unicode="*" horiz-adv-x="819" d="M59 1161l43 123l252 -100q-14 205 -14 280l143 9l-20 -291q152 65 254 102l43 -123q-1 0 -105 -32t-157 -44l190 -235l-110 -74q-131 185 -172 254q-28 -45 -96.5 -148.5t-69.5 -105.5l-109 74q36 47 188 235q-51 12 -152.5 43t-107.5 33z" />
<glyph unicode="+" horiz-adv-x="1163" d="M76 461v153h411v473h164v-473h436v-153h-436v-457h-164v457h-411z" />
<glyph unicode="," horiz-adv-x="438" d="M-6 -242q61 17 106.5 45.5t67.5 56.5t35 53.5t15 41.5l3 16q-45 -6 -89 25t-44 102q0 56 39.5 91.5t89.5 35.5q66 0 105.5 -44t39.5 -122q0 -137 -90.5 -243t-228.5 -131z" />
<glyph unicode="-" horiz-adv-x="694" d="M76 461v153h542v-153h-542z" />
<glyph unicode="." horiz-adv-x="458" d="M96 100q0 58 37 97t94 39q58 0 96.5 -39.5t38.5 -96.5q0 -56 -38.5 -93.5t-96.5 -37.5q-57 0 -94 37.5t-37 93.5z" />
<glyph unicode="/" horiz-adv-x="813" d="M-27 -287l719 1823h148l-713 -1823h-154z" />
<glyph unicode="0" horiz-adv-x="1124" d="M123 387q-9 174 0 340q10 191 132 300.5t308 109.5q185 0 306.5 -109.5t131.5 -300.5q9 -166 0 -340q-9 -195 -128.5 -306.5t-309.5 -111.5t-310.5 111.5t-129.5 306.5zM307 385q4 -121 78 -191.5t178 -70.5t177 70t77 192q6 181 0 342q-4 126 -75.5 191t-178.5 65 t-179.5 -65.5t-76.5 -190.5q-6 -161 0 -342z" />
<glyph unicode="1" horiz-adv-x="811" d="M137 1034l322 82l63 -8v-969l193 -6v-133h-574v133l197 6v793l-184 -6z" />
<glyph unicode="2" horiz-adv-x="1028" d="M109 109q26 21 102 78t129 98.5t125 107.5t117.5 120.5t78.5 121.5t33 127q0 221 -194 221q-94 0 -158 -62t-70 -176l-163 -10q-6 91 26 168t88.5 127.5t130.5 78.5t154 28q170 0 270.5 -95.5t100.5 -255.5q0 -88 -45 -180.5t-122 -174t-162 -150t-181 -127.5h573v-154 h-813z" />
<glyph unicode="3" horiz-adv-x="1046" d="M55 41l164 10q17 -108 91 -166.5t188 -58.5q120 0 199 72.5t79 218.5q0 140 -79 211t-203 71q-33 0 -62 -3t-42 -6l-13 -3l-31 94l373 471h-606v154h796l21 -123l-383 -461q3 0 11 1t11 1q61 0 116 -13.5t106 -44t88.5 -76t59.5 -114.5t22 -155q0 -211 -132.5 -330 t-330.5 -119q-185 0 -306.5 102.5t-136.5 266.5z" />
<glyph unicode="4" horiz-adv-x="1189" d="M127 123l410 1032l194 45l-416 -1046h404v450l174 72v-522h231v-144h-231v-317h-174v317h-567z" />
<glyph unicode="5" horiz-adv-x="1062" d="M55 41l164 10q17 -108 92 -166.5t191 -58.5q119 0 189.5 77.5t70.5 227.5q0 160 -68 229.5t-190 69.5q-44 0 -82.5 -8.5t-62.5 -21t-41.5 -25t-25.5 -21.5l-7 -8l-150 10l80 750h664v-154h-510l-58 -458q98 79 246 79q75 0 142.5 -25.5t124 -76t89.5 -138.5t33 -202 q0 -208 -125.5 -333.5t-318.5 -125.5q-117 0 -216.5 44.5t-162.5 130t-68 194.5z" />
<glyph unicode="6" horiz-adv-x="1144" d="M133 461q-12 274 0 514q9 204 132 331.5t329 127.5q79 0 148 -23.5t123 -68.5t84.5 -119t27.5 -168l-164 -11q-2 108 -59 172t-170 64q-126 0 -196.5 -78t-76.5 -227q-7 -161 -4 -322q41 93 128 150t198 57q63 0 121 -14.5t110 -48t90.5 -82t61 -121.5t22.5 -162 q0 -213 -120.5 -338t-317.5 -125q-204 0 -330 133t-137 359zM313 422q12 -138 86.5 -218.5t200.5 -80.5q119 0 186.5 79.5t67.5 229.5q0 146 -72.5 215.5t-183.5 69.5q-118 0 -203 -82.5t-82 -212.5z" />
<glyph unicode="7" horiz-adv-x="974" d="M25 952v154h864l31 -121l-590 -1292h-195l588 1259h-698z" />
<glyph unicode="8" horiz-adv-x="1185" d="M127 383q0 116 69 212.5t179 133.5q-100 46 -157.5 124t-57.5 181q0 97 36 174.5t97 126t138 74t163 25.5t163 -25.5t137.5 -74t96 -126t35.5 -174.5q0 -103 -57.5 -181t-157.5 -124q110 -37 179 -133.5t69 -212.5q0 -181 -127 -297.5t-338 -116.5q-212 0 -339.5 117 t-127.5 297zM311 383q0 -113 77 -186.5t206 -73.5t204.5 73.5t75.5 186.5t-73.5 187.5t-206.5 74.5t-208 -75t-75 -187zM344 1036q0 -106 66.5 -177t183.5 -71t182.5 71t65.5 177q0 105 -66.5 174.5t-181.5 69.5t-182.5 -69.5t-67.5 -174.5z" />
<glyph unicode="9" horiz-adv-x="1144" d="M106 676q0 209 128.5 335t320.5 126q92 0 171.5 -30t143 -89t101 -155t41.5 -218q9 -318 0 -504q-12 -232 -135.5 -350.5t-317.5 -118.5q-114 0 -212 42.5t-162.5 128.5t-67.5 198l164 10q42 -225 278 -225q126 0 196 79.5t79 235.5q4 80 4 273q-39 -88 -124 -136.5 t-194 -48.5q-63 0 -122 17t-112.5 53t-93 87.5t-63 126t-23.5 163.5zM291 676q0 -146 76.5 -219.5t187.5 -73.5q124 0 199 74.5t80 185.5v23q-6 155 -83.5 236t-195.5 81q-114 0 -189 -82t-75 -225z" />
<glyph unicode=":" horiz-adv-x="450" d="M90 100q0 58 37 97t94 39q58 0 96.5 -39.5t38.5 -96.5q0 -56 -38.5 -93.5t-96.5 -37.5q-57 0 -94 37.5t-37 93.5zM90 766q0 57 37 96t94 39q58 0 96.5 -39t38.5 -96q0 -56 -38.5 -93.5t-96.5 -37.5q-57 0 -94 37.5t-37 93.5z" />
<glyph unicode=";" horiz-adv-x="452" d="M-6 -242q61 17 106.5 45.5t67.5 56.5t35 53.5t15 41.5l3 16q-45 -6 -89 25t-44 102q0 56 39.5 91.5t89.5 35.5q66 0 105.5 -44t39.5 -122q0 -137 -90.5 -243t-228.5 -131zM88 766q0 57 37 96t94 39q58 0 96.5 -39t38.5 -96q0 -56 -38.5 -93.5t-96.5 -37.5q-57 0 -94 37.5 t-37 93.5z" />
<glyph unicode="&#x3c;" horiz-adv-x="1030" d="M137 477v49l715 508l70 -110l-580 -400v-20l582 -412l-74 -110z" />
<glyph unicode="=" horiz-adv-x="1103" d="M96 252v154h912v-154h-912zM96 682v154h912v-154h-912z" />
<glyph unicode="&#x3e;" horiz-adv-x="1030" d="M127 92l582 397v19l-580 416l80 110l704 -508v-49l-712 -495z" />
<glyph unicode="?" horiz-adv-x="909" d="M68 1044q-13 181 101 300.5t300 119.5q153 0 259 -99.5t106 -256.5q0 -58 -14.5 -110t-46 -103.5t-62 -90t-80.5 -95.5q-77 -87 -95 -135.5t-18 -143.5v-72h-141l-4 58q-8 138 15.5 209t113.5 180q81 98 103 135q44 75 44 160q0 98 -51 154.5t-135 56.5q-107 0 -168 -67 t-64 -189zM322 94q0 56 36.5 93.5t90.5 37.5q55 0 93 -37.5t38 -93.5q0 -54 -37.5 -89.5t-93.5 -35.5q-54 0 -90.5 35.5t-36.5 89.5z" />
<glyph unicode="@" horiz-adv-x="1961" d="M147 471q0 204 67 386.5t184.5 316t287.5 212t365 78.5q180 0 324.5 -59t237.5 -162.5t142 -243t49 -303.5q0 -128 -24.5 -236.5t-66.5 -184.5t-99 -129.5t-121.5 -79t-134.5 -25.5q-118 0 -195 56t-90 167q-3 -7 -9 -17.5t-28 -38.5t-48.5 -49.5t-70 -39t-92.5 -17.5 q-57 0 -103.5 21.5t-81 65t-49 116t-3.5 166.5q2 18 4 34t4.5 32.5t4 26t5 27t4.5 23.5t6 26.5t6 25t7.5 30t7.5 31.5q84 348 405 348q158 0 301 -88l-114 -635q-30 -178 129 -178q124 0 208.5 136t84.5 388q0 105 -20 196.5t-65 173t-113.5 139t-171 91t-230.5 33.5 q-154 0 -292 -64.5t-238.5 -177t-160 -273.5t-59.5 -345q0 -145 37 -262t100.5 -195.5t152 -131t187.5 -76t211 -23.5q69 0 132.5 8.5t105.5 21t74 25t47 20.5l14 9l47 -103q-5 -5 -14.5 -12.5t-45.5 -27t-80 -34.5t-119.5 -27.5t-160.5 -12.5q-142 0 -266.5 29.5t-231 94 t-182.5 159.5t-119 232.5t-43 305.5zM752 471q-12 -127 18.5 -181t110.5 -54q79 0 129.5 48.5t62.5 112.5l98 516q-43 29 -133 29q-88 0 -150 -53t-87 -162q-2 -10 -9.5 -40l-9.5 -38t-7.5 -31t-7.5 -34.5t-5.5 -32t-5.5 -39.5t-4 -41z" />
<glyph unicode="A" d="M31 0l487 1380l-16 54h205l501 -1434h-194l-129 389h-539l-131 -389h-184zM397 543h439l-172 522l-48 162l-47 -166z" />
<glyph unicode="B" horiz-adv-x="1198" d="M184 0v1434q224 2 394 2q487 0 487 -346q0 -121 -75 -212.5t-199 -125.5v-2q135 -30 220 -116t85 -226q0 -197 -136.5 -304.5t-400.5 -107.5zM369 154q86 -4 188 -4q84 0 143 9.5t109.5 35.5t76 76.5t25.5 127.5q0 269 -352 269h-190v-514zM369 811h182q66 0 111.5 4.5 t90 19.5t70.5 41t42 71t16 108q0 123 -74 175t-223 52l-215 -2v-469z" />
<glyph unicode="C" horiz-adv-x="1179" d="M139 430q-6 141 -5.5 281.5t5.5 279.5q9 213 145 343t359 130q211 0 331 -116q111 -108 112 -269q0 -12 -1 -24l-163 -11q0 118 -75.5 192.5t-207.5 74.5q-148 0 -228.5 -81t-86.5 -239q-4 -126 -4 -265.5t4 -293.5q4 -143 90.5 -226t216.5 -83q138 0 217 73.5t84 202.5 l164 -10v-13q0 -167 -124 -285q-129 -122 -341 -122q-215 0 -350 121t-142 340z" />
<glyph unicode="D" horiz-adv-x="1263" d="M184 0v1434q145 10 299 10q606 0 639 -475q7 -108 7 -227.5t-7 -249.5q-6 -109 -43.5 -195t-97.5 -143t-143 -94.5t-175.5 -53.5t-199.5 -16q-76 0 -146 2.5t-101 5.5zM369 147q57 -4 127 -4q45 0 85.5 4t84.5 14t81 26.5t71.5 43t59 61t41 83.5t19.5 108q7 122 7 240.5 t-7 234.5q-12 172 -125.5 252t-308.5 80l-135 -4v-1139z" />
<glyph unicode="E" horiz-adv-x="1064" d="M184 0v1434h779v-154h-594v-471h534v-154h-534v-501h594v-154h-779z" />
<glyph unicode="F" horiz-adv-x="960" d="M184 0v1434h766v-154h-581v-512h522v-154h-522v-614h-185z" />
<glyph unicode="G" d="M139 451q-6 113 -6 248t6 292q5 116 46.5 207.5t110.5 149t157 87t190 29.5q206 0 327 -118q114 -109 114 -267q0 -12 -1 -24l-163 -11q0 117 -77.5 192t-203.5 75q-143 0 -226 -78.5t-89 -241.5q-4 -141 -4 -278.5t4 -270.5q4 -153 97.5 -237t229.5 -84q150 0 227 89.5 t83 242.5q1 29 1 54v23q-1 34 -2 54l-2 20h-311v144h486q1 -19 1.5 -48t1.5 -112v-52q0 -48 -1 -81q-9 -220 -135 -353t-355 -133q-211 0 -352.5 126t-153.5 356z" />
<glyph unicode="H" horiz-adv-x="1374" d="M184 0v1434h185v-635h637v635h184v-1434h-184v645h-637v-645h-185z" />
<glyph unicode="I" horiz-adv-x="552" d="M184 0v1434h185v-1434h-185z" />
<glyph unicode="J" horiz-adv-x="1060" d="M74 389l162 10v-8q0 -121 57 -193q59 -75 184 -75q112 0 169.5 73t62.5 203q3 72 3 330.5t-2 481.5l-1 223h184q3 -417 3 -675.5t-3 -359.5q-6 -193 -114 -311.5t-302 -118.5q-193 0 -303 118q-101 107 -101 269q0 16 1 33z" />
<glyph unicode="K" horiz-adv-x="1122" d="M184 0v1434h185v-1434h-185zM379 729l534 705h211l-538 -686q28 -33 154.5 -197.5t263.5 -343.5t159 -207h-215z" />
<glyph unicode="L" horiz-adv-x="960" d="M184 0v1434h185v-1280h581v-154h-766z" />
<glyph unicode="M" horiz-adv-x="1599" d="M184 0v1434h187l364 -701l53 -131l56 131l393 701h178v-1434h-184v993l8 158h-4l-64 -168l-356 -612h-70l-325 612l-70 168h-4l12 -160v-991h-174z" />
<glyph unicode="N" horiz-adv-x="1382" d="M184 0v1434h187l551 -930l102 -228v1158h174v-1434h-184l-559 948l-97 217v-1165h-174z" />
<glyph unicode="O" horiz-adv-x="1269" d="M139 442q-6 142 -6 281t6 274q9 213 144 340t352 127q218 0 352 -126.5t143 -340.5q6 -135 6 -274t-6 -281q-9 -215 -143.5 -344t-351.5 -129t-352 129t-144 344zM324 444q4 -150 87.5 -235.5t223.5 -85.5t223.5 85.5t87.5 235.5q4 126 4 263t-4 286q-4 150 -87.5 234 t-223.5 84t-223.5 -84t-87.5 -234q-4 -149 -4 -286t4 -263z" />
<glyph unicode="P" horiz-adv-x="1136" d="M184 0v1434q181 2 326 2q106 0 189 -12t157 -42.5t123 -79.5t77.5 -127t28.5 -182q0 -218 -140 -340.5t-415 -122.5l-161 2v-532h-185zM369 688q82 -2 170 -2q86 0 149 14t112.5 47.5t75 94t25.5 149.5q0 148 -93 219.5t-284 71.5l-155 -2v-592z" />
<glyph unicode="Q" horiz-adv-x="1269" d="M139 442q-6 142 -6 281t6 274q9 213 144 340t352 127q218 0 352 -126.5t143 -340.5q6 -135 6 -274t-6 -281q-9 -188 -114 -312t-279 -153q22 -3 48.5 -9.5t44.5 -11.5t60.5 -18.5t63.5 -19.5q18 -5 52.5 -15.5t47.5 -14t38 -10.5t35.5 -9.5t28 -6.5t28.5 -5.5t24 -2.5 t25 -1q35 0 47 2v-103q-4 -5 -12 -13t-36.5 -21t-62.5 -13q-42 0 -96 15.5t-92 32t-111 50.5q-82 39 -199.5 102t-158.5 77q-165 34 -265.5 156t-107.5 304zM324 444q4 -150 87.5 -235.5t223.5 -85.5t223.5 85.5t87.5 235.5q4 126 4 263t-4 286q-4 150 -87.5 234t-223.5 84 t-223.5 -84t-87.5 -234q-4 -149 -4 -286t4 -263z" />
<glyph unicode="R" horiz-adv-x="1208" d="M184 0v1434q205 2 365 2q122 0 215 -19.5t167.5 -64t114 -125t39.5 -193.5q0 -78 -27.5 -144t-65.5 -106.5t-85.5 -70.5t-81.5 -42.5t-59 -17.5v-4q1 0 3.5 -1t12 -8.5t20 -19.5t28 -36.5t36.5 -57.5l301 -526h-202l-342 610h-254v-610h-185zM369 754q55 -2 133 -2 q53 0 89.5 1.5t82 7.5t75.5 17.5t61.5 32t49.5 49t29.5 71.5t11.5 97q0 254 -350 254l-182 -2v-526z" />
<glyph unicode="S" horiz-adv-x="1148" d="M113 391l163 10q15 -124 102.5 -201t215.5 -77q120 0 194 56t74 161q0 50 -18.5 92t-40 68t-71 55.5t-77 42t-92.5 39.5q-9 4 -14 6q-52 21 -83.5 35.5t-77.5 38.5t-74.5 45.5t-61.5 54t-51 67t-30.5 80.5t-12.5 99q0 174 123.5 287.5t308.5 113.5q129 0 227 -46.5 t150 -139.5q43 -77 43 -177q0 -21 -2 -44l-164 -10q0 130 -64.5 197t-189.5 67q-108 0 -178 -57t-70 -162q0 -39 9 -71.5t29.5 -59.5t41.5 -47t58.5 -41t66.5 -35t78 -35q165 -70 230 -111q173 -109 190 -276q2 -20 2 -41q0 -181 -131 -293.5t-328 -112.5q-198 0 -330.5 110 t-144.5 312z" />
<glyph unicode="T" horiz-adv-x="1036" d="M20 1280v154h996v-154h-406v-1280h-184v1280h-406z" />
<glyph unicode="U" horiz-adv-x="1320" d="M176 455v979h184q-1 -398 -1 -643t1 -336q1 -159 81 -245.5t221 -86.5q140 0 219 86.5t80 245.5v979h184q1 -373 1 -617.5t-1 -361.5q-1 -152 -63.5 -263t-170.5 -167t-249 -56q-216 0 -350.5 129t-135.5 357z" />
<glyph unicode="V" horiz-adv-x="1128" d="M10 1434h201l360 -1223l349 1223h198l-452 -1434h-201z" />
<glyph unicode="W" horiz-adv-x="1771" d="M51 1434h189l231 -942l47 -261h6l45 261l234 942h176l244 -942l47 -261h6l45 261l221 942h178l-362 -1434h-191l-245 973l-33 217h-6l-39 -217l-238 -973h-192z" />
<glyph unicode="X" horiz-adv-x="1142" d="M31 1434h213l334 -572l311 572h201l-408 -686l461 -748h-215l-359 621l-336 -621h-198l422 737z" />
<glyph unicode="Y" horiz-adv-x="1046" d="M-41 1434h201l332 -635l30 -76l31 76l326 635h198l-467 -859v-575h-184v575z" />
<glyph unicode="Z" horiz-adv-x="1138" d="M82 86l704 1194h-704v154h915q11 -25 21 -86l-705 -1194h723v-154h-934q-10 37 -20 86z" />
<glyph unicode="[" horiz-adv-x="608" d="M147 -287v1823h345v-123h-201v-1577h201v-123h-345z" />
<glyph unicode="\" horiz-adv-x="792" d="M-27 1536h150l696 -1823h-151z" />
<glyph unicode="]" horiz-adv-x="608" d="M129 -164h201v1577h-201v123h344v-1823h-344v123z" />
<glyph unicode="^" horiz-adv-x="1026" d="M96 932l361 502h108l365 -502h-164l-256 354l-254 -354h-160z" />
<glyph unicode="_" horiz-adv-x="923" d="M-6 -82h936v-154h-936v154z" />
<glyph unicode="`" horiz-adv-x="796" d="M96 1434h205l225 -297h-161z" />
<glyph unicode="a" horiz-adv-x="1005" d="M106 254q0 69 20 110.5t62 67t123 49.5q57 17 140 37.5t139 33t53 11.5v99q0 110 -37.5 164.5t-128.5 54.5q-87 0 -135.5 -47t-48.5 -127l-154 -13q-2 19 -2 37q-1 77 37 139q46 76 129 115t184 39q158 0 244 -88.5t86 -263.5v-436q0 -71 30 -92t103 -21v-123 q-15 -8 -43 -14q-23 -5 -52 -6h-14q-38 2 -73 13.5t-64 45t-38 84.5h-7q-92 -154 -272 -154q-119 0 -200 78t-81 207zM281 274q0 -80 46.5 -126t121.5 -46q87 0 140.5 66t53.5 164v131q-174 -41 -262 -70q-58 -20 -79 -46t-21 -73z" />
<glyph unicode="b" horiz-adv-x="1081" d="M168 68v1396l174 72v-676h2q41 67 119 115.5t174 48.5q140 0 229 -89t95 -253q2 -88 2 -173t-2 -169q-3 -109 -59 -194.5t-146 -131t-197 -45.5q-92 0 -204.5 27.5t-186.5 71.5zM342 147q78 -34 201 -34q107 0 173 56t70 171q3 71 3 156t-3 184q-3 98 -59.5 149.5 t-138.5 51.5q-97 0 -171.5 -64t-74.5 -135v-535z" />
<glyph unicode="c" horiz-adv-x="921" d="M121 328q-2 86 -2.5 168t2.5 159q6 177 111.5 273t271.5 96q165 0 260 -84q90 -80 90 -209v-14l-154 -10q-4 87 -59 130.5t-137 43.5q-92 0 -148.5 -58t-60.5 -168q-2 -80 -2.5 -154.5t2.5 -142.5q4 -124 60.5 -184.5t156.5 -60.5q88 0 138 51t61 133l143 -10v-16 q0 -119 -86 -207q-92 -94 -256 -95q-171 0 -279 92.5t-112 266.5z" />
<glyph unicode="d" horiz-adv-x="1114" d="M121 647q4 101 34.5 176t81.5 117.5t110.5 63t127.5 20.5q88 0 158 -40.5t108 -113.5v594l174 72v-1300q0 -71 30 -92t104 -22v-122q-18 -8 -46 -14q-19 -4 -43 -3q-10 1 -22 1q-38 2 -72 14t-63 44t-41 80h-4q-41 -69 -117.5 -111t-183.5 -42q-63 0 -119.5 20.5 t-103.5 60.5t-77 107.5t-34 153.5q-5 93 -5 189q0 72 3 147zM294 432q0 -48 3 -102q12 -217 207 -217q108 0 172.5 54.5t64.5 176.5v268q0 130 -65.5 199.5t-171.5 69.5q-94 0 -151.5 -64.5t-57.5 -179.5q0 -29 -1 -93q-1 -43 -1 -78q1 -18 1 -34z" />
<glyph unicode="e" horiz-adv-x="966" d="M121 338q-2 92 -2.5 168t2.5 137q8 166 110 273.5t281 107.5q161 0 254.5 -92t93.5 -246q0 -99 -31.5 -130t-148.5 -56q-68 -15 -165 -31.5t-159 -25.5l-63 -9v-65q0 -123 59 -189.5t160 -66.5q90 0 141 51t62 133l143 -10v-15q0 -119 -88 -208q-94 -95 -258 -95 q-179 0 -282.5 101t-108.5 268zM293 547q148 18 289 49q66 15 85 33t19 61q0 89 -46 140t-128 51q-111 0 -165 -73t-54 -198v-63z" />
<glyph unicode="f" horiz-adv-x="608" d="M35 870v123h143v158q0 190 89 287.5t229 97.5q119 0 200 -72l-55 -116q-51 34 -135 34q-79 0 -116.5 -55t-37.5 -186v-148h246v-123h-246v-870h-174v870h-143z" />
<glyph unicode="g" horiz-adv-x="1073" d="M86 -240q0 68 25.5 108.5t85.5 63.5q26 10 50.5 18t36.5 10l11 3l158 29v6l-97 12q-202 25 -202 172q0 69 47 117.5t108 65.5q-72 47 -111.5 123t-39.5 174q0 157 107 259.5t274 102.5q91 0 194 -31h293q2 -17 2 -65.5t-2 -67.5h-14q-66 0 -128 8q-67 10 -98 20l-30 9 l-2 -4q159 -82 159 -242q0 -157 -106 -252.5t-272 -95.5q-78 0 -148 25q-33 -12 -56.5 -37t-23.5 -58q0 -59 74 -73q26 -5 169 -27t208 -35q116 -24 186 -91t70 -187q0 -67 -30.5 -129.5t-87 -112.5t-147.5 -80t-202 -30q-196 0 -328.5 81.5t-132.5 210.5zM260 -213 q0 -83 85.5 -129.5t201.5 -46.5q134 0 213.5 50.5t79.5 150.5q0 126 -170 153l-76 12q-179 -46 -252 -83q-43 -22 -62.5 -43.5t-19.5 -63.5zM332 662q0 -101 52.5 -158.5t154.5 -57.5q93 0 146.5 55.5t53.5 160.5q0 102 -52 165.5t-148 63.5q-89 0 -148 -62t-59 -167z" />
<glyph unicode="h" horiz-adv-x="1101" d="M178 0v1464l174 72v-684h2q44 78 123.5 125t179.5 47q145 0 231.5 -89t86.5 -247v-688h-174v668q0 213 -197 213q-107 0 -178 -65.5t-74 -139.5v-676h-174z" />
<glyph unicode="i" horiz-adv-x="499" d="M106 1346q0 51 32.5 84.5t82.5 33.5q52 0 86.5 -33.5t34.5 -84.5t-34 -84t-87 -33q-50 0 -82.5 33t-32.5 84zM137 197v745l174 72v-756q0 -76 30 -105.5t103 -30.5v-122q-46 -14 -88 -16h-17q-35 0 -67 8q-40 10 -69.5 34.5t-47.5 68t-18 102.5z" />
<glyph unicode="j" horiz-adv-x="499" d="M14 -391q97 2 130.5 26t33.5 99v1208l174 72v-1311q0 -132 -94 -194q-58 -38 -137 -38q-49 0 -107 15v123zM147 1346q0 51 32.5 84.5t82.5 33.5q52 0 86.5 -33.5t34.5 -84.5t-34 -84t-87 -33q-50 0 -82.5 33t-32.5 84z" />
<glyph unicode="k" horiz-adv-x="1005" d="M168 0v1466l174 70v-1536h-174zM373 575v7l305 352q64 70 149 70q44 0 91 -21v-113q-10 1 -19 1q-35 1 -61 -9q-33 -12 -70 -49q-27 -27 -78 -85t-88 -102l-37 -44q199 -309 252 -379q37 -48 66.5 -64t87.5 -16v-123q-29 -16 -92 -16q-66 0 -113 33.5t-109 117.5 q-100 137 -284 440z" />
<glyph unicode="l" horiz-adv-x="520" d="M147 195v1269l175 72v-1280q0 -75 30 -104t103 -29v-123q-43 -14 -85 -16h-17q-33 0 -65 8q-40 10 -71.5 33.5t-50.5 67t-19 102.5z" />
<glyph unicode="m" horiz-adv-x="1630" d="M66 870v113q50 21 100 21q69 0 119 -37.5t63 -110.5h2q42 79 119.5 123.5t163.5 44.5q96 0 164 -47t94 -139h4q38 81 120.5 133.5t186.5 52.5q128 0 209.5 -85t81.5 -237v-702h-174v668q0 213 -170 213q-97 0 -159 -68t-62 -170v-643h-174v666q0 114 -43.5 164.5 t-126.5 50.5q-96 0 -159 -67.5t-63 -172.5v-641h-174v776q0 58 -28 76t-94 18z" />
<glyph unicode="n" horiz-adv-x="1101" d="M66 870v113q50 21 100 21q69 0 119 -37.5t63 -110.5h2q47 78 126.5 123t182.5 45q139 0 222.5 -90t83.5 -246v-688h-174v668q0 112 -47 162.5t-142 50.5q-101 0 -170.5 -67t-69.5 -134v-680h-174v776q0 58 -28 76t-94 18z" />
<glyph unicode="o" horiz-adv-x="1034" d="M123 338q-4 89 -3.5 169.5t3.5 151.5q8 164 115.5 264.5t279.5 100.5q171 0 278 -100.5t115 -264.5q4 -75 4 -155t-4 -166q-8 -165 -116.5 -267t-276.5 -102q-169 0 -279 102.5t-116 266.5zM297 344q5 -102 64.5 -166.5t156.5 -64.5q95 0 154.5 64.5t64.5 164.5 q2 72 2.5 150.5t-2.5 162.5q-3 101 -62.5 163.5t-156.5 62.5q-98 0 -158 -62t-63 -164q-2 -86 -2 -163.5t2 -147.5z" />
<glyph unicode="p" horiz-adv-x="1091" d="M55 870v113q50 21 101 21q69 0 119 -37.5t63 -110.5h2q44 75 124 121.5t185 46.5q144 0 230.5 -94.5t91.5 -253.5q3 -80 3 -164t-3 -172q-6 -173 -99 -272t-233 -99q-94 0 -168.5 38.5t-116.5 105.5h-2v-625h-174v1288q0 58 -28.5 76t-94.5 18zM352 344q0 -119 68 -175 t180 -56q87 0 139 56t58 163q5 86 5 173t-5 173q-5 98 -57.5 150.5t-153.5 52.5q-86 0 -160 -63t-74 -136v-338z" />
<glyph unicode="q" horiz-adv-x="1060" d="M121 317q-3 75 -3 153t3 159q6 189 125 292t303 103q90 0 188.5 -22t175.5 -60v-1454h-174v637h-2q-93 -156 -280 -156q-143 0 -236.5 99t-99.5 249zM295 338q3 -111 61.5 -168t155.5 -57q104 0 165.5 65t61.5 187v481q-86 35 -190 35q-107 0 -178.5 -68t-75.5 -203 q-3 -68 -3 -136t3 -136z" />
<glyph unicode="r" horiz-adv-x="700" d="M66 870v113q50 21 100 21q69 0 120 -37.5t64 -110.5h4q21 75 74 121.5t143 46.5q36 0 66.5 -13t38.5 -28l-27 -123h-106q-103 0 -141 -62t-40 -210v-588h-174v776q0 58 -28 76t-94 18z" />
<glyph unicode="s" horiz-adv-x="907" d="M106 287l154 10q9 -79 65 -131.5t146 -52.5q75 0 120.5 34.5t45.5 98.5q0 61 -51 98.5t-168 77.5q-50 17 -88 34t-77 43t-63.5 56.5t-40.5 74t-16 95.5q0 133 96.5 216t241.5 83q155 0 241 -92q73 -78 72 -180q0 -19 -2 -39l-153 -11q0 83 -44 131t-120 48 q-67 0 -112.5 -38t-45.5 -100q0 -63 48 -99.5t143 -72.5q134 -52 186 -86q127 -82 127 -225q0 -125 -93.5 -208t-246.5 -83q-162 0 -262.5 91.5t-102.5 226.5z" />
<glyph unicode="t" horiz-adv-x="681" d="M45 870v123h143v215l174 72v-287h275v-123h-275v-587q0 -54 13.5 -89.5t39.5 -52t52.5 -22.5t64.5 -6q29 0 61 2.5t49 4.5l17 3l9 -123q-74 -31 -195 -31q-57 0 -106 16.5t-90.5 51t-65 95.5t-23.5 142v596h-143z" />
<glyph unicode="u" horiz-adv-x="1067" d="M127 303v639l174 72v-678q0 -112 48 -167.5t138 -55.5q102 0 160 58.5t58 133.5v637l174 72v-778q0 -71 30 -92t103 -22v-122q-18 -8 -46 -14q-19 -4 -43 -3q-11 1 -23 1q-38 2 -71.5 14t-62.5 44t-41 80h-4q-86 -154 -281 -153q-141 0 -227 87t-86 247z" />
<glyph unicode="v" horiz-adv-x="862" d="M14 993h185l196 -657l35 -158h2l39 158l203 657h174l-334 -993h-176z" />
<glyph unicode="w" horiz-adv-x="1396" d="M25 993h184l168 -665l29 -140h4l24 140l197 665h147l191 -665l24 -140h4l25 140l178 665h172l-299 -993h-172l-164 578l-37 188h-6l-37 -188l-170 -578h-168z" />
<glyph unicode="x" horiz-adv-x="905" d="M35 0l325 520l-305 473h195l225 -352l211 352h184l-309 -485l330 -508h-195l-247 383l-230 -383h-184z" />
<glyph unicode="y" horiz-adv-x="860" d="M14 993h183l202 -622l31 -125h2l31 123l205 624h178q-2 -6 -109.5 -300t-239.5 -650.5t-210 -556.5h-166l221 565z" />
<glyph unicode="z" horiz-adv-x="876" d="M86 102l481 748h-473v143h678l10 -102l-487 -748h516v-143h-715z" />
<glyph unicode="{" horiz-adv-x="739" d="M158 571v103q51 16 86 39t58.5 67t23.5 107v430q0 63 29 111.5t74.5 72.5t102 32.5t111.5 -9.5v-113q-40 3 -79 0t-67 -29.5t-28 -74.5v-420q0 -94 -50.5 -170.5t-146.5 -89.5q102 -17 149.5 -76.5t47.5 -167.5v-438q0 -36 16.5 -60.5t42 -34t56 -13t59.5 2.5v-112 q-55 -18 -111.5 -9.5t-102 32t-74.5 72t-29 111.5v449q0 89 -46 130.5t-122 57.5z" />
<glyph unicode="|" horiz-adv-x="520" d="M188 -512v2048h144v-2048h-144z" />
<glyph unicode="}" horiz-adv-x="739" d="M109 -160q29 -6 59.5 -2.5t56 13t42 34t16.5 60.5v438q0 108 47 167.5t149 76.5q-96 13 -146 89.5t-50 170.5v420q0 48 -28 74.5t-67 29.5t-79 0v113q55 18 111.5 9.5t102 -32.5t74.5 -72.5t29 -111.5v-430q0 -63 23.5 -107t58.5 -67t86 -39v-103q-76 -16 -122 -57.5 t-46 -130.5v-449q0 -63 -29 -111.5t-74.5 -72t-102 -32t-111.5 9.5v112z" />
<glyph unicode="~" horiz-adv-x="980" d="M150 422q-8 97 43 164t143 67q60 0 163 -45t152 -45q36 0 49 25.5t13 73.5h118q10 -107 -33.5 -174.5t-140.5 -67.5q-55 0 -168.5 45t-146.5 45q-68 0 -68 -88h-124z" />
<glyph unicode="&#xa1;" horiz-adv-x="442" d="M92 899q0 54 37.5 89.5t93.5 35.5q54 0 90.5 -35.5t36.5 -89.5q0 -56 -36.5 -93.5t-90.5 -37.5q-55 0 -93 38t-38 93zM121 -471l39 1106h123l36 -1075z" />
<glyph unicode="&#xa2;" horiz-adv-x="921" d="M121 328q-5 173 0 327q4 160 94 254.5t234 110.5v158l110 61v-219q140 -13 219 -94.5t76 -208.5l-154 -10q-4 87 -59 130.5t-137 43.5q-92 0 -148.5 -58t-60.5 -168q-5 -160 0 -297q4 -124 60.5 -184.5t156.5 -60.5q88 0 138 51t61 133l143 -10q5 -120 -73.5 -211 t-221.5 -105v-155l-110 -52v209q-147 16 -236 107t-92 248z" />
<glyph unicode="&#xa3;" horiz-adv-x="1216" d="M106 625l21 133h152q-9 164 -9 286q0 193 116.5 306.5t287.5 113.5q186 0 290.5 -104.5t92.5 -294.5l-164 -10q0 256 -219 256q-101 0 -160 -63.5t-59 -192.5q0 -79 8 -297h307l-20 -133h-281q0 -20 3 -113.5t3 -136.5q0 -57 -20 -105t-51.5 -78.5t-57 -47.5t-49.5 -27 q120 37 215 37h588l-21 -154h-952l-16 102q4 1 10.5 3.5t25 12t35.5 21.5t38 33.5t36 47t25 63t10 79.5q0 36 -1 79.5t-2.5 98t-2.5 85.5h-179z" />
<glyph unicode="&#xa5;" horiz-adv-x="1146" d="M14 1434h201l365 -648l354 648h199l-465 -803h329v-133h-331v-133h331v-134h-331v-231h-185v231h-313v134h313v133h-313v133h311z" />
<glyph unicode="&#xa6;" horiz-adv-x="520" d="M188 328h144v-840h-144v840zM188 809v727h144v-727h-144z" />
<glyph unicode="&#xa7;" horiz-adv-x="958" d="M119 113l164 10q0 -84 54 -134t138 -50q77 0 122.5 41t45.5 112q0 45 -29 80.5t-75 59t-101.5 45.5t-111 48.5t-101.5 60t-75 86.5t-29 122q0 79 55 134.5t141 82.5l97 -53q-44 -6 -81.5 -42t-37.5 -106q0 -47 29.5 -83.5t76.5 -61.5t103.5 -48.5t113 -50.5t103.5 -61 t76.5 -88t29.5 -123q0 -133 -99.5 -216t-252.5 -83q-158 0 -258 91.5t-98 226.5zM162 1165q0 94 50.5 164t126.5 102.5t165 32.5q145 0 238.5 -88.5t78.5 -218.5l-164 -10q0 80 -40.5 127t-114.5 47q-68 0 -112 -41.5t-44 -103.5q0 -47 28.5 -83.5t74 -61.5t100.5 -48 t110 -49.5t100.5 -59t74 -82.5t28.5 -114q0 -94 -65 -156.5t-152 -79.5l-96 47q49 6 93 44.5t44 103.5q0 47 -29 83t-75 61t-102 48.5t-112 52t-102 64t-75 91.5t-29 128z" />
<glyph unicode="&#xa8;" horiz-adv-x="913" d="M158 1319q0 49 32.5 82t79.5 33q51 0 84 -32.5t33 -82.5q0 -49 -33 -81t-84 -32q-48 0 -80 32t-32 81zM526 1319q0 49 32 82t79 33q51 0 85 -33t34 -82t-34 -81t-85 -32q-48 0 -79.5 32t-31.5 81z" />
<glyph unicode="&#xa9;" horiz-adv-x="1726" d="M117 717q0 153 59 291t158.5 238t237.5 159t290 59q153 0 291.5 -59t238.5 -159t159 -238t59 -291q0 -203 -100 -374.5t-272 -271.5t-376 -100q-152 0 -290 59t-237.5 159t-158.5 238t-59 290zM236 717q0 -174 82.5 -321.5t226.5 -234.5t317 -87q174 0 318.5 87 t226.5 234.5t82 321.5q0 131 -48.5 250t-131.5 205.5t-200 138t-247 51.5q-173 0 -317 -87t-226.5 -235t-82.5 -323zM551 565q-7 158 0 295q8 137 93.5 221t217.5 84q123 0 205.5 -74t73.5 -190l-123 -10q0 72 -42 111.5t-114 39.5q-74 0 -118 -47.5t-50 -134.5 q-8 -110 0 -287q4 -89 49 -135.5t121 -46.5q71 0 113.5 44.5t42.5 121.5l123 -10q7 -124 -78 -201.5t-201 -77.5q-136 0 -221.5 79t-91.5 218z" />
<glyph unicode="&#xaa;" horiz-adv-x="854" d="M137 451v133h580v-133h-580zM143 969q0 68 36 104t104 51l215 41v62q0 125 -105 125q-57 0 -85.5 -33.5t-28.5 -89.5l-123 -10q-8 101 56 168t189 67q103 0 166.5 -60.5t63.5 -176.5v-250q0 -46 20 -61t66 -15v-92q-17 -8 -45.5 -10.5t-60.5 2.5t-60 28t-39 62 q-63 -103 -180 -103q-85 0 -137 52t-52 139zM276 973q0 -45 27.5 -68.5t71.5 -23.5q63 0 93 38t30 103v65q-99 -14 -156 -30q-66 -18 -66 -84z" />
<glyph unicode="&#xab;" horiz-adv-x="1011" d="M86 508v14l383 348l82 -104l-275 -244v-12l277 -264l-90 -103zM500 508v14l383 348l82 -104l-275 -244v-12l277 -264l-90 -103z" />
<glyph unicode="&#xac;" horiz-adv-x="1005" d="M76 461v153h854v-538h-154v385h-700z" />
<glyph unicode="&#xad;" horiz-adv-x="694" d="M76 461v153h542v-153h-542z" />
<glyph unicode="&#xae;" horiz-adv-x="1728" d="M117 717q0 153 59 291t159 238t238 159t291 59t291.5 -59t238.5 -159t159 -238t59 -291t-59 -291.5t-159 -238.5t-238.5 -159t-291.5 -59t-291 59t-238 159t-159 238.5t-59 291.5zM236 717q0 -176 82 -324t226.5 -234.5t319.5 -86.5q131 0 248 51t199.5 137.5t131 205.5 t48.5 251t-48.5 251t-131 205.5t-199.5 137.5t-248 51q-175 0 -319.5 -86.5t-226.5 -234.5t-82 -324zM580 293v864h327q132 0 207.5 -74.5t75.5 -187.5q0 -90 -54.5 -157.5t-134.5 -88.5l29 -33l164 -323h-156l-161 334h-154v-334h-143zM723 739h160q77 0 120.5 41t43.5 111 q0 69 -42.5 106t-121.5 37h-160v-295z" />
<glyph unicode="&#xaf;" horiz-adv-x="851" d="M147 1290v144h558v-144h-558z" />
<glyph unicode="&#xb0;" horiz-adv-x="798" d="M96 1171q0 131 85 212t218 81t218 -81t85 -212q0 -129 -88 -210.5t-215 -81.5q-133 0 -218 80.5t-85 211.5zM252 1171q0 -79 41 -123t106 -44q67 0 108.5 44t41.5 123q0 81 -41.5 125.5t-108.5 44.5q-65 0 -106 -44.5t-41 -125.5z" />
<glyph unicode="&#xb1;" horiz-adv-x="1183" d="M147 612v154h361v381h154v-381h374v-154h-374v-387h-154v387h-361zM195 -31v154h778v-154h-778z" />
<glyph unicode="&#xb2;" horiz-adv-x="774" d="M104 899q16 13 68.5 55t94 76.5t83.5 73.5q76 69 115 130t39 138q0 69 -33.5 106.5t-91.5 37.5q-69 0 -110 -43.5t-40 -120.5l-123 -11q-12 120 64 203.5t209 83.5q123 0 195.5 -69t72.5 -185q0 -172 -194 -327q-30 -24 -64 -50t-56.5 -42t-41.5 -30l-19 -14h416v-112 h-573z" />
<glyph unicode="&#xb3;" horiz-adv-x="714" d="M78 1024l123 10q3 -67 46.5 -105t114.5 -38q66 0 105 40.5t39 110.5q0 71 -44.5 108.5t-107.5 37.5q-42 0 -67 -10l-25 69l209 248h-375v113h527l10 -97l-223 -245q93 5 166 -51t73 -168q0 -125 -81.5 -197t-205.5 -72q-130 0 -208 71t-76 175z" />
<glyph unicode="&#xb4;" horiz-adv-x="774" d="M250 1137l225 297h205l-270 -297h-160z" />
<glyph unicode="&#xb6;" horiz-adv-x="1105" d="M96 696q0 140 97.5 235t273.5 95h51v-661h-51q-176 0 -273.5 96t-97.5 235zM530 0v123h142v1106h-142v123h439v-123h-144v-1106h144v-123h-439z" />
<glyph unicode="&#xb7;" horiz-adv-x="450" d="M90 563q0 57 37 96t94 39q58 0 96.5 -39t38.5 -96q0 -56 -38.5 -93.5t-96.5 -37.5q-57 0 -94 37.5t-37 93.5z" />
<glyph unicode="&#xb8;" horiz-adv-x="745" d="M186 -285h113q0 -35 21 -54t55 -19q29 0 48 18.5t19 54.5t-21.5 55t-58.5 19v113q89 7 146 -46t57 -141q0 -77 -52 -131.5t-138 -54.5q-85 0 -141.5 51.5t-47.5 134.5z" />
<glyph unicode="&#xb9;" horiz-adv-x="602" d="M96 799v104l156 10v572l-143 -12l-13 94l236 51l63 -10v-695l152 -10v-104h-451z" />
<glyph unicode="&#xba;" horiz-adv-x="825" d="M139 440v133h547v-133h-547zM141 1022q-5 96 0 190q5 108 76.5 175t196.5 67q122 0 193 -67t77 -175q5 -91 0 -190q-6 -107 -78 -175.5t-192 -68.5q-122 0 -195 68.5t-78 175.5zM274 1026q4 -67 42.5 -106t97.5 -39q58 0 96 39t41 106q5 85 0 184q-3 68 -40 105t-97 37 t-98.5 -37.5t-41.5 -104.5q-5 -95 0 -184z" />
<glyph unicode="&#xbb;" horiz-adv-x="1011" d="M45 768l90 100l371 -364v-15l-377 -348l-82 103l264 245v15zM465 768l90 100l371 -364v-15l-377 -348l-82 103l264 245v15z" />
<glyph unicode="&#xbc;" horiz-adv-x="1765" d="M147 625v104l156 10v572l-143 -13l-13 95l236 51l63 -10v-695l152 -10v-104h-451zM319 0l1006 1434h154l-1004 -1434h-156zM952 274l375 545l150 -10v-506h141v-113h-141v-190h-134v190h-370zM1096 303h247v369z" />
<glyph unicode="&#xbd;" horiz-adv-x="1843" d="M147 625v104l156 10v572l-143 -13l-13 95l236 51l63 -10v-695l152 -10v-104h-451zM319 0l1006 1434h154l-1004 -1434h-156zM1112 100q16 13 68.5 55t94 76.5t83.5 73.5q76 69 114.5 130t38.5 138q0 69 -33.5 106.5t-91.5 37.5q-69 0 -109.5 -43.5t-39.5 -120.5l-123 -10 q-12 120 63.5 203t208.5 83q123 0 196 -69t73 -185q0 -172 -195 -327q-30 -24 -64 -49.5l-56 -42t-41 -30.5l-19 -13h416v-113h-574z" />
<glyph unicode="&#xbe;" horiz-adv-x="1818" d="M150 850l122 10q3 -67 47 -105t115 -38q66 0 105 40.5t39 110.5q0 71 -44.5 108.5t-107.5 37.5q-43 0 -68 -10l-24 69l209 248h-375v113h526l11 -97l-224 -245q93 5 166.5 -51.5t73.5 -168.5q0 -125 -81.5 -196.5t-205.5 -71.5q-130 0 -208 71t-76 175zM385 0l1006 1434 h153l-1003 -1434h-156zM1006 274l374 545l150 -10v-506h141v-113h-141v-190h-133v190h-371zM1149 303h248v369z" />
<glyph unicode="&#xbf;" horiz-adv-x="911" d="M92 -115q0 109 50 197t153 203q77 87 95 135t18 143v72h141l4 -57q8 -138 -15.5 -209.5t-113.5 -180.5q-4 -5 -24 -29t-24 -29t-20.5 -26t-20.5 -28t-16 -26t-15.5 -28.5t-11 -27.5t-9.5 -32l-4.5 -31.5t-2.5 -36.5q0 -98 51 -154.5t136 -56.5q107 0 167.5 67t63.5 189 l164 10q13 -181 -101 -300.5t-300 -119.5q-153 0 -259 99.5t-106 256.5zM346 899q0 54 37.5 89.5t93.5 35.5q54 0 90.5 -35.5t36.5 -89.5q0 -56 -36.5 -93.5t-90.5 -37.5q-55 0 -93 38t-38 93z" />
<glyph unicode="&#xc0;" d="M31 0l487 1380l-16 54h205l501 -1434h-194l-129 389h-539l-131 -389h-184zM274 1802h185l205 -266h-158zM397 543h439l-172 522l-48 162l-47 -166z" />
<glyph unicode="&#xc1;" d="M31 0l487 1380l-16 54h205l501 -1434h-194l-129 389h-539l-131 -389h-184zM397 543h439l-172 522l-48 162l-47 -166zM569 1536l189 266h184l-223 -266h-150z" />
<glyph unicode="&#xc2;" d="M31 0l487 1380l-16 54h205l501 -1434h-194l-129 389h-539l-131 -389h-184zM348 1536l236 266h88l231 -266h-155l-125 141l-127 -141h-148zM397 543h439l-172 522l-48 162l-47 -166z" />
<glyph unicode="&#xc3;" d="M31 0l487 1380l-16 54h205l501 -1434h-194l-129 389h-539l-131 -389h-184zM348 1556q-8 91 31.5 148t120.5 57q38 0 87.5 -21.5t89 -43t54.5 -21.5q47 0 47 88h109q21 -207 -154 -207q-46 0 -123.5 40t-95.5 40q-24 0 -37.5 -21.5t-13.5 -58.5h-115zM397 543h439 l-172 522l-48 162l-47 -166z" />
<glyph unicode="&#xc4;" d="M31 0l487 1380l-16 54h205l501 -1434h-194l-129 389h-539l-131 -389h-184zM326 1642q0 49 32.5 82t79.5 33q51 0 84 -32.5t33 -82.5q0 -49 -33 -80.5t-84 -31.5q-48 0 -80 31.5t-32 80.5zM397 543h439l-172 522l-48 162l-47 -166zM694 1642q0 49 32 82t79 33q51 0 85 -33 t34 -82t-34 -80.5t-85 -31.5q-48 0 -79.5 31.5t-31.5 80.5z" />
<glyph unicode="&#xc5;" d="M31 0l487 1380l-16 54h205l501 -1434h-194l-129 389h-539l-131 -389h-184zM397 543h439l-172 522l-48 162l-47 -166zM432 1690q0 81 55 130.5t127 49.5q70 0 126 -50.5t57 -129.5t-54 -132t-129 -53t-128 52.5t-54 132.5zM532 1692q0 -43 24 -69t58 -26q35 0 58.5 27 t23.5 68q0 35 -23.5 60.5t-58.5 25.5q-33 0 -57.5 -24.5t-24.5 -61.5z" />
<glyph unicode="&#xc6;" horiz-adv-x="1652" d="M-20 0l753 1434h828v-154h-521v-471h461v-154h-461v-501h521v-154h-705v512h-424l-262 -512h-190zM512 666h344v671z" />
<glyph unicode="&#xc7;" horiz-adv-x="1179" d="M139 430q-11 282 0 561q9 213 145 343t359 130q212 0 331.5 -116.5t110.5 -292.5l-163 -11q0 118 -75.5 192.5t-207.5 74.5q-148 0 -228.5 -81t-86.5 -239q-9 -251 0 -559q4 -143 90.5 -226t216.5 -83q138 0 217 73.5t84 202.5l164 -10q5 -176 -124 -298t-341 -122 q-215 0 -350 121t-142 340zM416 -326h112q0 -35 21 -54t55 -19q29 0 48.5 18.5t19.5 54.5t-21.5 55t-58.5 19v113q89 7 146 -46t57 -141q0 -77 -52.5 -131.5t-138.5 -54.5q-85 0 -141 51.5t-47 134.5z" />
<glyph unicode="&#xc8;" horiz-adv-x="1064" d="M184 0v1434h779v-154h-594v-471h534v-154h-534v-501h594v-154h-779zM262 1802h184l205 -266h-157z" />
<glyph unicode="&#xc9;" horiz-adv-x="1064" d="M184 0v1434h779v-154h-594v-471h534v-154h-534v-501h594v-154h-779zM471 1536l188 266h185l-223 -266h-150z" />
<glyph unicode="&#xca;" horiz-adv-x="1064" d="M184 0v1434h779v-154h-594v-471h534v-154h-534v-501h594v-154h-779zM305 1536l236 266h88l231 -266h-155l-125 141l-127 -141h-148z" />
<glyph unicode="&#xcb;" horiz-adv-x="1064" d="M184 0v1434h779v-154h-594v-471h534v-154h-534v-501h594v-154h-779zM281 1642q0 49 32.5 82t79.5 33q51 0 84 -32.5t33 -82.5q0 -49 -33 -80.5t-84 -31.5q-48 0 -80 31.5t-32 80.5zM649 1642q0 49 32 82t79 33q51 0 85 -33t34 -82t-34 -80.5t-85 -31.5q-48 0 -79.5 31.5 t-31.5 80.5z" />
<glyph unicode="&#xcc;" horiz-adv-x="552" d="M-25 1802h185l205 -266h-158zM184 0v1434h185v-1434h-185z" />
<glyph unicode="&#xcd;" horiz-adv-x="552" d="M184 0v1434h185v-1434h-185zM213 1536l188 266h185l-224 -266h-149z" />
<glyph unicode="&#xce;" horiz-adv-x="552" d="M0 1536l236 266h88l231 -266h-156l-125 141l-127 -141h-147zM184 0v1434h185v-1434h-185z" />
<glyph unicode="&#xcf;" horiz-adv-x="552" d="M-12 1642q0 49 32.5 82t79.5 33q51 0 84 -32.5t33 -82.5q0 -49 -33 -80.5t-84 -31.5q-48 0 -80 31.5t-32 80.5zM184 0v1434h185v-1434h-185zM356 1642q0 49 32 82t79 33q51 0 85 -33t34 -82t-34 -80.5t-85 -31.5q-48 0 -79.5 31.5t-31.5 80.5z" />
<glyph unicode="&#xd0;" d="M61 614v123h142v697q145 10 299 10q606 0 639 -475q14 -217 0 -477q-6 -109 -43.5 -195t-97.5 -143t-143.5 -94.5t-176 -53.5t-199.5 -16q-76 0 -145.5 2.5t-101.5 5.5l-31 2v614h-142zM387 147q57 -4 127 -4q45 0 85.5 4t84.5 14t81 26.5t71.5 43t59 61t41 83.5 t19.5 108q14 243 0 475q-12 172 -125.5 252t-308.5 80l-135 -4v-549h227v-123h-227v-467z" />
<glyph unicode="&#xd1;" horiz-adv-x="1382" d="M184 0v1434h187l551 -930l102 -228v1158h174v-1434h-184l-559 948l-97 217v-1165h-174zM444 1556q-8 91 31.5 148t120.5 57q38 0 87.5 -21.5t89 -43t54.5 -21.5q47 0 47 88h109q21 -207 -154 -207q-46 0 -123.5 40t-95.5 40q-24 0 -37.5 -21.5t-13.5 -58.5h-115z" />
<glyph unicode="&#xd2;" horiz-adv-x="1269" d="M139 442q-12 285 0 555q9 213 144 340t352 127q218 0 352 -126.5t143 -340.5q12 -270 0 -555q-9 -215 -143.5 -344t-351.5 -129t-352 129t-144 344zM324 444q4 -150 87.5 -235.5t223.5 -85.5t223.5 85.5t87.5 235.5q8 251 0 549q-4 150 -87.5 234t-223.5 84t-223.5 -84 t-87.5 -234q-8 -298 0 -549zM354 1802h185l204 -266h-157z" />
<glyph unicode="&#xd3;" horiz-adv-x="1269" d="M139 442q-12 285 0 555q9 213 144 340t352 127q218 0 352 -126.5t143 -340.5q12 -270 0 -555q-9 -215 -143.5 -344t-351.5 -129t-352 129t-144 344zM324 444q4 -150 87.5 -235.5t223.5 -85.5t223.5 85.5t87.5 235.5q8 251 0 549q-4 150 -87.5 234t-223.5 84t-223.5 -84 t-87.5 -234q-8 -298 0 -549zM557 1536l188 266h185l-223 -266h-150z" />
<glyph unicode="&#xd4;" horiz-adv-x="1269" d="M139 442q-12 285 0 555q9 213 144 340t352 127q218 0 352 -126.5t143 -340.5q12 -270 0 -555q-9 -215 -143.5 -344t-351.5 -129t-352 129t-144 344zM324 444q4 -150 87.5 -235.5t223.5 -85.5t223.5 85.5t87.5 235.5q8 251 0 549q-4 150 -87.5 234t-223.5 84t-223.5 -84 t-87.5 -234q-8 -298 0 -549zM371 1536l235 266h88l232 -266h-156l-125 141l-127 -141h-147z" />
<glyph unicode="&#xd5;" horiz-adv-x="1269" d="M139 442q-12 285 0 555q9 213 144 340t352 127q218 0 352 -126.5t143 -340.5q12 -270 0 -555q-9 -215 -143.5 -344t-351.5 -129t-352 129t-144 344zM324 444q4 -150 87.5 -235.5t223.5 -85.5t223.5 85.5t87.5 235.5q8 251 0 549q-4 150 -87.5 234t-223.5 84t-223.5 -84 t-87.5 -234q-8 -298 0 -549zM369 1554q-8 91 31 148t120 57q38 0 87.5 -21.5t89.5 -43t55 -21.5q47 0 47 88h108q21 -207 -153 -207q-46 0 -123.5 40t-95.5 40q-25 0 -38.5 -21.5t-13.5 -58.5h-114z" />
<glyph unicode="&#xd6;" horiz-adv-x="1269" d="M139 442q-12 285 0 555q9 213 144 340t352 127q218 0 352 -126.5t143 -340.5q12 -270 0 -555q-9 -215 -143.5 -344t-351.5 -129t-352 129t-144 344zM324 444q4 -150 87.5 -235.5t223.5 -85.5t223.5 85.5t87.5 235.5q8 251 0 549q-4 150 -87.5 234t-223.5 84t-223.5 -84 t-87.5 -234q-8 -298 0 -549zM338 1645q0 49 32.5 81.5t80.5 32.5q51 0 83.5 -32t32.5 -82t-32.5 -81.5t-83.5 -31.5q-48 0 -80.5 32t-32.5 81zM707 1645q0 49 31.5 81.5t78.5 32.5q51 0 85 -32.5t34 -81.5t-34 -81t-85 -32q-47 0 -78.5 32t-31.5 81z" />
<glyph unicode="&#xd7;" horiz-adv-x="1269" d="M143 121l381 381l-377 379l109 114l377 -383l385 385l108 -112l-383 -381l383 -381l-108 -113l-385 381l-381 -381z" />
<glyph unicode="&#xd8;" horiz-adv-x="1241" d="M92 -31l117 191q-84 121 -90 282q-12 285 0 555q9 214 143.5 340.5t351.5 126.5q206 0 334 -110l68 110h133l-123 -198q78 -115 84 -269q12 -270 0 -555q-9 -215 -144 -344t-352 -129q-195 0 -325 105l-64 -105h-133zM303 444q0 -50 14 -108l539 870q-85 105 -242 105 q-140 0 -223.5 -84t-87.5 -234q-8 -298 0 -549zM379 219q87 -96 235 -96q140 0 224 85.5t88 235.5q8 251 0 549q-4 58 -13 90z" />
<glyph unicode="&#xd9;" horiz-adv-x="1320" d="M176 455v979h184q-2 -797 0 -979q1 -159 81 -245.5t221 -86.5q140 0 219 86.5t80 245.5v979h184q2 -746 0 -979q-1 -152 -63.5 -263t-170.5 -167t-249 -56q-216 0 -350.5 129t-135.5 357zM383 1802h184l205 -266h-158z" />
<glyph unicode="&#xda;" horiz-adv-x="1320" d="M176 455v979h184q-2 -797 0 -979q1 -159 81 -245.5t221 -86.5q140 0 219 86.5t80 245.5v979h184q2 -746 0 -979q-1 -152 -63.5 -263t-170.5 -167t-249 -56q-216 0 -350.5 129t-135.5 357zM586 1536l188 266h184l-223 -266h-149z" />
<glyph unicode="&#xdb;" horiz-adv-x="1320" d="M176 455v979h184q-2 -797 0 -979q1 -159 81 -245.5t221 -86.5q140 0 219 86.5t80 245.5v979h184q2 -746 0 -979q-1 -152 -63.5 -263t-170.5 -167t-249 -56q-216 0 -350.5 129t-135.5 357zM401 1536l236 266h88l231 -266h-155l-125 141l-127 -141h-148z" />
<glyph unicode="&#xdc;" horiz-adv-x="1320" d="M176 455v979h184q-2 -797 0 -979q1 -159 81 -245.5t221 -86.5q140 0 219 86.5t80 245.5v979h184q2 -746 0 -979q-1 -152 -63.5 -263t-170.5 -167t-249 -56q-216 0 -350.5 129t-135.5 357zM383 1645q0 49 32.5 81.5t80.5 32.5q51 0 83.5 -32t32.5 -82t-32.5 -81.5 t-83.5 -31.5q-48 0 -80.5 32t-32.5 81zM752 1645q0 49 31.5 81.5t78.5 32.5q51 0 85 -32.5t34 -81.5t-34 -81t-85 -32q-47 0 -78.5 32t-31.5 81z" />
<glyph unicode="&#xdd;" horiz-adv-x="1046" d="M-41 1434h201l332 -635l30 -76l31 76l326 635h198l-467 -859v-575h-184v575zM440 1536l189 266h184l-223 -266h-150z" />
<glyph unicode="&#xde;" horiz-adv-x="1146" d="M184 0v1434h185v-267q90 2 196 2q89 0 163 -11t144 -40.5t118 -76.5t77 -124t29 -178q0 -212 -135.5 -328t-395.5 -116l-196 2v-297h-185zM369 453q96 -2 186 -2q81 0 140 11.5t110.5 41.5t78.5 88.5t27 144.5q0 142 -82.5 210.5t-267.5 68.5l-192 -2v-561z" />
<glyph unicode="&#xdf;" horiz-adv-x="1163" d="M178 0v1083q0 109 38.5 197t102 143t142 84t162.5 29q79 0 148.5 -21.5t128 -65t92.5 -119.5t34 -177q0 -65 -27.5 -103.5t-111.5 -107.5q-25 -20 -88.5 -67t-100.5 -76q56 3 106.5 -5t98 -32t82.5 -62t56.5 -99.5t23.5 -139.5q3 -64 0 -154q-7 -158 -108 -242.5 t-275 -84.5q-98 0 -180 26l2 127q56 -20 155 -20q222 0 232 194q1 23 1 49t-0.5 57.5t-0.5 47.5q-3 124 -59.5 174.5t-167.5 50.5q-43 0 -93 -4l-10 129q63 50 227 203q35 32 50.5 63.5t15.5 79.5q0 118 -67 177t-169 59q-50 0 -97 -19t-85 -54t-61 -91.5t-23 -126.5v-1102 h-174z" />
<glyph unicode="&#xe0;" horiz-adv-x="1005" d="M106 254q0 69 20 110.5t62 67t123 49.5q57 17 140 37.5t139 33t53 11.5v99q0 110 -37.5 164.5t-128.5 54.5q-87 0 -135.5 -47t-48.5 -127l-154 -13q-11 99 35.5 175.5t129 115.5t183.5 39q158 0 244 -88.5t86 -263.5v-436q0 -71 30 -92t103 -21v-123q-15 -8 -43 -14.5 t-66 -5t-73 13t-64 45t-38 84.5h-7q-92 -154 -272 -154q-119 0 -200 78t-81 207zM109 1434h204l226 -297h-162zM281 274q0 -80 46.5 -126t121.5 -46q87 0 140.5 66t53.5 164v131q-174 -41 -262 -70q-58 -20 -79 -46t-21 -73z" />
<glyph unicode="&#xe1;" horiz-adv-x="1005" d="M106 254q0 69 20 110.5t62 67t123 49.5q57 17 140 37.5t139 33t53 11.5v99q0 110 -37.5 164.5t-128.5 54.5q-87 0 -135.5 -47t-48.5 -127l-154 -13q-11 99 35.5 175.5t129 115.5t183.5 39q158 0 244 -88.5t86 -263.5v-436q0 -71 30 -92t103 -21v-123q-15 -8 -43 -14.5 t-66 -5t-73 13t-64 45t-38 84.5h-7q-92 -154 -272 -154q-119 0 -200 78t-81 207zM281 274q0 -80 46.5 -126t121.5 -46q87 0 140.5 66t53.5 164v131q-174 -41 -262 -70q-58 -20 -79 -46t-21 -73zM371 1137l225 297h205l-271 -297h-159z" />
<glyph unicode="&#xe2;" horiz-adv-x="1005" d="M106 254q0 69 20 110.5t62 67t123 49.5q57 17 140 37.5t139 33t53 11.5v99q0 110 -37.5 164.5t-128.5 54.5q-87 0 -135.5 -47t-48.5 -127l-154 -13q-11 99 35.5 175.5t129 115.5t183.5 39q158 0 244 -88.5t86 -263.5v-436q0 -71 30 -92t103 -21v-123q-15 -8 -43 -14.5 t-66 -5t-73 13t-64 45t-38 84.5h-7q-92 -154 -272 -154q-119 0 -200 78t-81 207zM156 1126l247 308h109l248 -308h-164l-139 172l-142 -172h-159zM281 274q0 -80 46.5 -126t121.5 -46q87 0 140.5 66t53.5 164v131q-174 -41 -262 -70q-58 -20 -79 -46t-21 -73z" />
<glyph unicode="&#xe3;" horiz-adv-x="1005" d="M106 254q0 69 20 110.5t62 67t123 49.5q57 17 140 37.5t139 33t53 11.5v99q0 110 -37.5 164.5t-128.5 54.5q-87 0 -135.5 -47t-48.5 -127l-154 -13q-11 99 35.5 175.5t129 115.5t183.5 39q158 0 244 -88.5t86 -263.5v-436q0 -71 30 -92t103 -21v-123q-15 -8 -43 -14.5 t-66 -5t-73 13t-64 45t-38 84.5h-7q-92 -154 -272 -154q-119 0 -200 78t-81 207zM168 1206q-8 93 37.5 159.5t132.5 66.5q54 0 151.5 -48.5t122.5 -48.5q58 0 58 99h108q10 -98 -32.5 -163t-139.5 -65q-49 0 -140.5 45t-121.5 45q-31 0 -46 -25t-15 -65h-115zM281 274 q0 -80 46.5 -126t121.5 -46q87 0 140.5 66t53.5 164v131q-174 -41 -262 -70q-58 -20 -79 -46t-21 -73z" />
<glyph unicode="&#xe4;" horiz-adv-x="1005" d="M106 254q0 69 20 110.5t62 67t123 49.5q57 17 140 37.5t139 33t53 11.5v99q0 110 -37.5 164.5t-128.5 54.5q-87 0 -135.5 -47t-48.5 -127l-154 -13q-11 99 35.5 175.5t129 115.5t183.5 39q158 0 244 -88.5t86 -263.5v-436q0 -71 30 -92t103 -21v-123q-15 -8 -43 -14.5 t-66 -5t-73 13t-64 45t-38 84.5h-7q-92 -154 -272 -154q-119 0 -200 78t-81 207zM164 1319q0 49 32.5 82t79.5 33q51 0 84 -32.5t33 -82.5q0 -49 -33 -81t-84 -32q-48 0 -80 32t-32 81zM281 274q0 -80 46.5 -126t121.5 -46q87 0 140.5 66t53.5 164v131q-174 -41 -262 -70 q-58 -20 -79 -46t-21 -73zM532 1319q0 49 32 82t79 33q51 0 85 -33t34 -82t-34 -81t-85 -32q-48 0 -79.5 32t-31.5 81z" />
<glyph unicode="&#xe5;" horiz-adv-x="1005" d="M106 254q0 69 20 110.5t62 67t123 49.5q57 17 140 37.5t139 33t53 11.5v99q0 110 -37.5 164.5t-128.5 54.5q-87 0 -135.5 -47t-48.5 -127l-154 -13q-11 99 35.5 175.5t129 115.5t183.5 39q158 0 244 -88.5t86 -263.5v-436q0 -71 30 -92t103 -21v-123q-15 -8 -43 -14.5 t-66 -5t-73 13t-64 45t-38 84.5h-7q-92 -154 -272 -154q-119 0 -200 78t-81 207zM260 1335q0 89 61.5 145t141.5 56q78 0 140.5 -56.5t62.5 -144.5t-60.5 -146.5t-142.5 -58.5t-142.5 58.5t-60.5 146.5zM281 274q0 -80 46.5 -126t121.5 -46q87 0 140.5 66t53.5 164v131 q-174 -41 -262 -70q-58 -20 -79 -46t-21 -73zM373 1337q0 -48 26.5 -76t63.5 -28q40 0 65 29t25 75q0 39 -25.5 68t-64.5 29q-36 0 -63 -27.5t-27 -69.5z" />
<glyph unicode="&#xe6;" horiz-adv-x="1497" d="M106 250q0 99 45.5 151.5t147.5 79.5q57 15 144.5 30t148 23t57.5 7v139q0 201 -172 201q-87 0 -135.5 -47t-48.5 -127l-154 -13q-18 133 76 231.5t268 98.5q183 0 271 -117q107 117 288 117q162 0 255.5 -88.5t93.5 -239.5q0 -100 -32.5 -133t-148.5 -55 q-68 -13 -165 -26.5t-159 -21.5l-63 -7v-107q3 -116 63 -174.5t156 -58.5q90 0 138 50.5t59 133.5l143 -10q4 -83 -33 -154.5t-117.5 -117.5t-189.5 -46q-120 0 -214 49.5t-140 143.5q-34 -82 -106.5 -137.5t-186.5 -55.5q-123 0 -206 78.5t-83 202.5zM281 270 q0 -78 46 -123t122 -45q90 0 145 62t55 158v120q-168 -24 -256 -49q-61 -18 -86.5 -44.5t-25.5 -78.5zM825 557q152 16 291 43q64 11 84.5 33.5t20.5 66.5q0 86 -45.5 133.5t-128.5 47.5q-111 0 -166.5 -73t-55.5 -198v-53z" />
<glyph unicode="&#xe7;" horiz-adv-x="921" d="M121 328q-5 173 0 327q6 177 111.5 273t271.5 96q165 0 260 -84t90 -223l-154 -10q-4 87 -59 130.5t-137 43.5q-92 0 -148.5 -58t-60.5 -168q-5 -160 0 -297q4 -124 60.5 -184.5t156.5 -60.5q88 0 138 51t61 133l143 -10q6 -129 -86 -223.5t-256 -94.5q-171 0 -279 92.5 t-112 266.5zM299 -324h113q0 -35 20.5 -54t54.5 -19q29 0 48.5 18.5t19.5 54.5t-21.5 55t-58.5 19v113q89 7 146 -46t57 -141q0 -77 -52.5 -131.5t-138.5 -54.5q-85 0 -141 51.5t-47 134.5z" />
<glyph unicode="&#xe8;" horiz-adv-x="966" d="M121 338q-5 184 0 305q8 166 110 273.5t281 107.5q161 0 254.5 -92t93.5 -246q0 -99 -31.5 -130t-148.5 -56q-68 -15 -165 -31.5t-159 -25.5l-63 -9v-65q0 -123 59 -189.5t160 -66.5q90 0 141 51t62 133l143 -10q6 -128 -88.5 -223t-257.5 -95q-179 0 -282.5 101 t-108.5 268zM154 1434h204l226 -297h-162zM293 547q148 18 289 49q66 15 85 33t19 61q0 89 -46 140t-128 51q-111 0 -165 -73t-54 -198v-63z" />
<glyph unicode="&#xe9;" horiz-adv-x="966" d="M121 338q-5 184 0 305q8 166 110 273.5t281 107.5q161 0 254.5 -92t93.5 -246q0 -99 -31.5 -130t-148.5 -56q-68 -15 -165 -31.5t-159 -25.5l-63 -9v-65q0 -123 59 -189.5t160 -66.5q90 0 141 51t62 133l143 -10q6 -128 -88.5 -223t-257.5 -95q-179 0 -282.5 101 t-108.5 268zM293 547q148 18 289 49q66 15 85 33t19 61q0 89 -46 140t-128 51q-111 0 -165 -73t-54 -198v-63zM375 1137l225 297h205l-270 -297h-160z" />
<glyph unicode="&#xea;" horiz-adv-x="966" d="M121 338q-5 184 0 305q8 166 110 273.5t281 107.5q161 0 254.5 -92t93.5 -246q0 -99 -31.5 -130t-148.5 -56q-68 -15 -165 -31.5t-159 -25.5l-63 -9v-65q0 -123 59 -189.5t160 -66.5q90 0 141 51t62 133l143 -10q6 -128 -88.5 -223t-257.5 -95q-179 0 -282.5 101 t-108.5 268zM201 1126l248 308h108l248 -308h-164l-139 172l-142 -172h-159zM293 547q148 18 289 49q66 15 85 33t19 61q0 89 -46 140t-128 51q-111 0 -165 -73t-54 -198v-63z" />
<glyph unicode="&#xeb;" horiz-adv-x="966" d="M121 338q-5 184 0 305q8 166 110 273.5t281 107.5q161 0 254.5 -92t93.5 -246q0 -99 -31.5 -130t-148.5 -56q-68 -15 -165 -31.5t-159 -25.5l-63 -9v-65q0 -123 59 -189.5t160 -66.5q90 0 141 51t62 133l143 -10q6 -128 -88.5 -223t-257.5 -95q-179 0 -282.5 101 t-108.5 268zM197 1319q0 49 32.5 82t79.5 33q51 0 84 -32.5t33 -82.5q0 -49 -33 -81t-84 -32q-48 0 -80 32t-32 81zM293 547q148 18 289 49q66 15 85 33t19 61q0 89 -46 140t-128 51q-111 0 -165 -73t-54 -198v-63zM565 1319q0 49 32 82t79 33q51 0 85 -33t34 -82t-34 -81 t-85 -32q-48 0 -79.5 32t-31.5 81z" />
<glyph unicode="&#xec;" horiz-adv-x="499" d="M-131 1434h205l225 -297h-162zM137 197v745l174 72v-756q0 -76 30 -105.5t103 -29.5v-123q-46 -13 -88.5 -15.5t-83 8t-70 34.5t-47.5 67.5t-18 102.5z" />
<glyph unicode="&#xed;" horiz-adv-x="499" d="M137 197v745l174 72v-756q0 -76 30 -105.5t103 -29.5v-123q-46 -13 -88.5 -15.5t-83 8t-70 34.5t-47.5 67.5t-18 102.5zM147 1137l226 297h205l-271 -297h-160z" />
<glyph unicode="&#xee;" horiz-adv-x="499" d="M-80 1126l248 308h108l248 -308h-164l-139 172l-141 -172h-160zM137 197v745l174 72v-756q0 -76 30 -105.5t103 -29.5v-123q-46 -13 -88.5 -15.5t-83 8t-70 34.5t-47.5 67.5t-18 102.5z" />
<glyph unicode="&#xef;" horiz-adv-x="499" d="M-72 1323q0 49 32.5 82t80.5 33q51 0 84 -32.5t33 -82.5q0 -49 -33 -81t-84 -32q-48 0 -80.5 32t-32.5 81zM137 197v745l174 72v-756q0 -76 30 -105.5t103 -29.5v-123q-46 -13 -88.5 -15.5t-83 8t-70 34.5t-47.5 67.5t-18 102.5zM297 1323q0 49 32 82t79 33 q51 0 84.5 -32.5t33.5 -82.5q0 -49 -33.5 -81t-84.5 -32q-48 0 -79.5 32t-31.5 81z" />
<glyph unicode="&#xf0;" horiz-adv-x="1077" d="M128 488q0 42 5 137q7 158 109.5 253t240.5 95q90 0 159.5 -36.5t105.5 -100.5q-26 246 -181 413l-192 -143h-170l291 213q-123 102 -297 151l151 66q139 -50 248 -131l170 131h182l-274 -197q236 -231 256 -645q8 -171 0 -366q-5 -110 -59.5 -193t-142.5 -124.5 t-195 -41.5q-167 0 -281.5 98t-120.5 261q-5 118 -5 160zM307 338q5 -101 67.5 -163t160.5 -62q97 0 158 61t65 162q5 128 0 289q-4 96 -69.5 150t-160.5 54q-96 0 -156.5 -52t-64.5 -163q-5 -152 0 -276z" />
<glyph unicode="&#xf1;" horiz-adv-x="1101" d="M66 870v113q50 21 100 21q69 0 119 -37.5t63 -110.5h2q47 78 126.5 123t182.5 45q139 0 222.5 -90t83.5 -246v-688h-174v668q0 112 -47 162.5t-142 50.5q-101 0 -170.5 -67t-69.5 -134v-680h-174v776q0 58 -28 76t-94 18zM270 1206q-8 93 37.5 159.5t132.5 66.5 q54 0 152 -48.5t123 -48.5q57 0 57 99h109q10 -98 -32.5 -163t-139.5 -65q-49 0 -141 45t-122 45q-31 0 -46 -25t-15 -65h-115z" />
<glyph unicode="&#xf2;" horiz-adv-x="1034" d="M123 338q-7 178 0 321q8 164 115.5 264.5t279.5 100.5q171 0 278 -100.5t115 -264.5q7 -150 0 -321q-8 -165 -116.5 -267t-276.5 -102q-169 0 -279 102.5t-116 266.5zM166 1434h205l225 -297h-162zM297 344q5 -102 64.5 -166.5t156.5 -64.5q95 0 154.5 64.5t64.5 164.5 q5 145 0 313q-3 101 -62.5 163.5t-156.5 62.5q-98 0 -158 -62t-63 -164q-5 -171 0 -311z" />
<glyph unicode="&#xf3;" horiz-adv-x="1034" d="M123 338q-7 178 0 321q8 164 115.5 264.5t279.5 100.5q171 0 278 -100.5t115 -264.5q7 -150 0 -321q-8 -165 -116.5 -267t-276.5 -102q-169 0 -279 102.5t-116 266.5zM297 344q5 -102 64.5 -166.5t156.5 -64.5q95 0 154.5 64.5t64.5 164.5q5 145 0 313 q-3 101 -62.5 163.5t-156.5 62.5q-98 0 -158 -62t-63 -164q-5 -171 0 -311zM420 1137l225 297h205l-270 -297h-160z" />
<glyph unicode="&#xf4;" horiz-adv-x="1034" d="M123 338q-7 178 0 321q8 164 115.5 264.5t279.5 100.5q171 0 278 -100.5t115 -264.5q7 -150 0 -321q-8 -165 -116.5 -267t-276.5 -102q-169 0 -279 102.5t-116 266.5zM211 1126l248 308h108l248 -308h-164l-139 172l-141 -172h-160zM297 344q5 -102 64.5 -166.5 t156.5 -64.5q95 0 154.5 64.5t64.5 164.5q5 145 0 313q-3 101 -62.5 163.5t-156.5 62.5q-98 0 -158 -62t-63 -164q-5 -171 0 -311z" />
<glyph unicode="&#xf5;" horiz-adv-x="1034" d="M123 338q-7 178 0 321q8 164 115.5 264.5t279.5 100.5q171 0 278 -100.5t115 -264.5q7 -150 0 -321q-8 -165 -116.5 -267t-276.5 -102q-169 0 -279 102.5t-116 266.5zM209 1206q-8 93 37.5 159.5t132.5 66.5q54 0 151.5 -48.5t122.5 -48.5q58 0 58 99h108 q10 -98 -32.5 -163t-139.5 -65q-49 0 -140.5 45t-121.5 45q-31 0 -46 -25t-15 -65h-115zM297 344q5 -102 64.5 -166.5t156.5 -64.5q95 0 154.5 64.5t64.5 164.5q5 145 0 313q-3 101 -62.5 163.5t-156.5 62.5q-98 0 -158 -62t-63 -164q-5 -171 0 -311z" />
<glyph unicode="&#xf6;" horiz-adv-x="1034" d="M123 338q-7 178 0 321q8 164 115.5 264.5t279.5 100.5q171 0 278 -100.5t115 -264.5q7 -150 0 -321q-8 -165 -116.5 -267t-276.5 -102q-169 0 -279 102.5t-116 266.5zM217 1319q0 49 32.5 82t80.5 33q51 0 83.5 -32.5t32.5 -82.5t-32.5 -81.5t-83.5 -31.5q-48 0 -80.5 32 t-32.5 81zM297 344q5 -102 64.5 -166.5t156.5 -64.5q95 0 154.5 64.5t64.5 164.5q5 145 0 313q-3 101 -62.5 163.5t-156.5 62.5q-98 0 -158 -62t-63 -164q-5 -171 0 -311zM586 1319q0 49 31.5 82t78.5 33q51 0 85 -33t34 -82t-34 -81t-85 -32q-47 0 -78.5 32t-31.5 81z" />
<glyph unicode="&#xf7;" horiz-adv-x="1202" d="M76 461v153h1050v-153h-1050zM465 131q0 57 37 96t94 39q58 0 96.5 -39t38.5 -96q0 -56 -38.5 -93.5t-96.5 -37.5q-57 0 -94 37.5t-37 93.5zM465 940q0 57 37 96t94 39q58 0 96.5 -39t38.5 -96q0 -56 -38.5 -93.5t-96.5 -37.5q-57 0 -94 37.5t-37 93.5z" />
<glyph unicode="&#xf8;" horiz-adv-x="1044" d="M88 -31l107 152q-69 95 -72 217q-7 178 0 321q8 164 115.5 264.5t279.5 100.5q150 0 258 -84l60 84h122l-112 -160q59 -86 65 -205q7 -150 0 -321q-8 -165 -116.5 -267t-276.5 -102q-144 0 -252 78l-55 -78h-123zM297 344q0 -32 10 -65l375 530q-59 72 -164 72 q-98 0 -158 -62t-63 -164q-5 -171 0 -311zM358 178q62 -65 160 -65q95 0 154.5 64.5t64.5 164.5q5 145 0 313q0 1 -2 20.5t-4 29.5z" />
<glyph unicode="&#xf9;" horiz-adv-x="1067" d="M127 303v639l174 72v-678q0 -112 48 -167.5t138 -55.5q102 0 160 58.5t58 133.5v637l174 72v-778q0 -71 30 -92t103 -21v-123q-18 -8 -46 -13.5t-65.5 -3t-71.5 14.5t-63 44t-41 81h-4q-86 -154 -281 -154q-141 0 -227 87t-86 247zM158 1434h204l226 -297h-162z" />
<glyph unicode="&#xfa;" horiz-adv-x="1067" d="M127 303v639l174 72v-678q0 -112 48 -167.5t138 -55.5q102 0 160 58.5t58 133.5v637l174 72v-778q0 -71 30 -92t103 -21v-123q-18 -8 -46 -13.5t-65.5 -3t-71.5 14.5t-63 44t-41 81h-4q-86 -154 -281 -154q-141 0 -227 87t-86 247zM418 1137l225 297h205l-270 -297h-160z " />
<glyph unicode="&#xfb;" horiz-adv-x="1067" d="M127 303v639l174 72v-678q0 -112 48 -167.5t138 -55.5q102 0 160 58.5t58 133.5v637l174 72v-778q0 -71 30 -92t103 -21v-123q-18 -8 -46 -13.5t-65.5 -3t-71.5 14.5t-63 44t-41 81h-4q-86 -154 -281 -154q-141 0 -227 87t-86 247zM217 1126l248 308h108l248 -308h-164 l-139 172l-141 -172h-160z" />
<glyph unicode="&#xfc;" horiz-adv-x="1067" d="M127 303v639l174 72v-678q0 -112 48 -167.5t138 -55.5q102 0 160 58.5t58 133.5v637l174 72v-778q0 -71 30 -92t103 -21v-123q-18 -8 -46 -13.5t-65.5 -3t-71.5 14.5t-63 44t-41 81h-4q-86 -154 -281 -154q-141 0 -227 87t-86 247zM209 1319q0 49 32.5 82t80.5 33 q51 0 83.5 -32.5t32.5 -82.5t-32.5 -81.5t-83.5 -31.5q-48 0 -80.5 32t-32.5 81zM578 1319q0 49 31.5 82t78.5 33q51 0 85 -33t34 -82t-34 -81t-85 -32q-47 0 -78.5 32t-31.5 81z" />
<glyph unicode="&#xfd;" horiz-adv-x="860" d="M14 993h183l202 -622l31 -125h2l31 123l205 624h178q-2 -6 -109.5 -300t-239.5 -650.5t-210 -556.5h-166l221 565zM334 1137l225 297h205l-270 -297h-160z" />
<glyph unicode="&#xfe;" horiz-adv-x="1091" d="M178 -512v1976l174 72v-674q36 70 112.5 116t174.5 46q152 0 239.5 -93t92.5 -255q5 -159 0 -336q-6 -176 -102.5 -273.5t-239.5 -97.5q-90 0 -165 36.5t-112 96.5v-614h-174zM352 348q0 -124 69 -179.5t177 -55.5q87 0 140 56.5t59 162.5q9 173 0 346q-9 203 -211 203 q-95 0 -162 -63t-72 -140v-330z" />
<glyph unicode="&#xff;" horiz-adv-x="860" d="M14 993h183l202 -622l31 -125h2l31 123l205 624h178q-2 -6 -109.5 -300t-239.5 -650.5t-210 -556.5h-166l221 565zM135 1319q0 49 32.5 82t80.5 33q51 0 84 -32.5t33 -82.5q0 -49 -33 -81t-84 -32q-48 0 -80.5 32t-32.5 81zM504 1319q0 49 31.5 82t78.5 33q51 0 85 -33 t34 -82t-34 -81t-85 -32q-47 0 -78.5 32t-31.5 81z" />
<glyph unicode="&#x152;" horiz-adv-x="1646" d="M129 424q-13 300 0 584q9 203 145.5 329.5t337.5 126.5q118 0 207 -30h735v-154h-563v-471h514v-154h-514v-501h563v-154h-737q-91 -31 -209 -31q-201 0 -335.5 125.5t-143.5 329.5zM303 426q4 -140 91.5 -221.5t219.5 -81.5q136 0 203 39v1108q-70 41 -205 41 q-131 0 -218 -83t-91 -220q-10 -261 0 -582z" />
<glyph unicode="&#x153;" horiz-adv-x="1591" d="M123 338q-7 178 0 321q8 164 115.5 264.5t279.5 100.5q203 0 311 -137q108 137 308 137q161 0 254.5 -92t93.5 -246q0 -99 -31.5 -130t-148.5 -56q-68 -15 -165 -31.5t-160 -25.5l-62 -9v-65q0 -123 59 -189.5t160 -66.5q90 0 140.5 51t61.5 133l144 -10 q6 -128 -88.5 -223t-257.5 -95q-206 0 -314 133q-111 -133 -305 -133q-169 0 -279 102.5t-116 266.5zM297 344q5 -102 64.5 -166.5t156.5 -64.5q95 0 154.5 64.5t64.5 164.5q5 145 0 313q-3 101 -62.5 163.5t-156.5 62.5q-98 0 -158 -62t-63 -164q-5 -171 0 -311zM918 547 q147 18 288 49q66 15 85.5 33.5t19.5 60.5q0 89 -46 140t-128 51q-111 0 -165 -73t-54 -198v-63z" />
<glyph unicode="&#x178;" horiz-adv-x="1046" d="M-41 1434h201l332 -635l30 -76l31 76l326 635h198l-467 -859v-575h-184v575zM236 1640q0 49 32.5 82t79.5 33q51 0 84 -32.5t33 -82.5q0 -49 -33 -80.5t-84 -31.5q-48 0 -80 31.5t-32 80.5zM604 1640q0 49 32 82t79 33q51 0 85 -33t34 -82t-34 -80.5t-85 -31.5 q-48 0 -79.5 31.5t-31.5 80.5z" />
<glyph unicode="&#x2c6;" horiz-adv-x="972" d="M178 1126l248 308h109l247 -308h-164l-139 172l-141 -172h-160z" />
<glyph unicode="&#x2dc;" horiz-adv-x="950" d="M180 1206q-8 93 37.5 159.5t132.5 66.5q54 0 152 -48.5t123 -48.5q57 0 57 99h109q10 -98 -33 -163t-140 -65q-49 0 -140.5 45t-121.5 45q-31 0 -46 -25t-15 -65h-115z" />
<glyph unicode="&#x2000;" horiz-adv-x="935" />
<glyph unicode="&#x2001;" horiz-adv-x="1870" />
<glyph unicode="&#x2002;" horiz-adv-x="935" />
<glyph unicode="&#x2003;" horiz-adv-x="1870" />
<glyph unicode="&#x2004;" horiz-adv-x="623" />
<glyph unicode="&#x2005;" horiz-adv-x="467" />
<glyph unicode="&#x2006;" horiz-adv-x="311" />
<glyph unicode="&#x2007;" horiz-adv-x="311" />
<glyph unicode="&#x2008;" horiz-adv-x="233" />
<glyph unicode="&#x2009;" horiz-adv-x="374" />
<glyph unicode="&#x200a;" horiz-adv-x="103" />
<glyph unicode="&#x2010;" horiz-adv-x="694" d="M76 461v153h542v-153h-542z" />
<glyph unicode="&#x2011;" horiz-adv-x="694" d="M76 461v153h542v-153h-542z" />
<glyph unicode="&#x2012;" horiz-adv-x="694" d="M76 461v153h542v-153h-542z" />
<glyph unicode="&#x2013;" horiz-adv-x="1046" d="M76 461v153h895v-153h-895z" />
<glyph unicode="&#x2014;" horiz-adv-x="1318" d="M76 461v153h1167v-153h-1167z" />
<glyph unicode="&#x2018;" horiz-adv-x="438" d="M88 1087q0 137 91 243.5t229 131.5l49 -73q-44 -12 -80.5 -30.5t-59.5 -38.5t-40.5 -40.5t-26 -39t-14 -33t-6.5 -23.5l-1 -8q45 6 89 -25t44 -102q0 -56 -39.5 -91.5t-89.5 -35.5q-66 0 -105.5 43.5t-39.5 121.5z" />
<glyph unicode="&#x2019;" horiz-adv-x="438" d="M-6 997q61 17 106.5 45.5t67.5 56.5t35 53.5t15 41.5l3 16q-45 -6 -89 25t-44 102q0 56 39.5 91.5t89.5 35.5q66 0 105.5 -44t39.5 -122q0 -137 -90.5 -243t-228.5 -131z" />
<glyph unicode="&#x201a;" horiz-adv-x="399" d="M-4 -242q61 17 106.5 45.5t67.5 56.5t35 53.5t15 41.5l3 16q-45 -6 -89 25t-44 102q0 56 39.5 91.5t89.5 35.5q66 0 106 -44t40 -122q0 -137 -91 -243t-229 -131z" />
<glyph unicode="&#x201c;" horiz-adv-x="774" d="M88 1087q0 137 91 243.5t229 131.5l49 -73q-44 -12 -80.5 -30.5t-59.5 -38.5t-40.5 -40.5t-26 -39t-14 -33t-6.5 -23.5l-1 -8q45 6 89 -25t44 -102q0 -56 -39.5 -91.5t-89.5 -35.5q-66 0 -105.5 43.5t-39.5 121.5zM424 1087q0 137 90.5 243.5t228.5 131.5l50 -73 q-44 -12 -80.5 -30.5t-59.5 -38.5t-40.5 -40.5t-26 -39t-14 -33t-6.5 -23.5l-1 -8q45 6 89 -25t44 -102q0 -56 -39.5 -91.5t-89.5 -35.5q-66 0 -105.5 43.5t-39.5 121.5z" />
<glyph unicode="&#x201d;" horiz-adv-x="774" d="M-6 997q61 17 106.5 45.5t67.5 56.5t35 53.5t15 41.5l3 16q-45 -6 -89 25t-44 102q0 56 39.5 91.5t89.5 35.5q66 0 105.5 -44t39.5 -122q0 -137 -90.5 -243t-228.5 -131zM330 997q61 17 106.5 45.5t67.5 56.5t35 53.5t15 41.5l3 16q-45 -6 -89 25t-44 102q0 56 39.5 91.5 t89.5 35.5q66 0 105.5 -44t39.5 -122q0 -137 -90.5 -243t-228.5 -131z" />
<glyph unicode="&#x201e;" horiz-adv-x="774" d="M-6 -242q61 17 106.5 45.5t67.5 56.5t35 53.5t15 41.5l3 16q-45 -6 -89 25t-44 102q0 56 39.5 91.5t89.5 35.5q66 0 105.5 -44t39.5 -122q0 -137 -90.5 -243t-228.5 -131zM315 -242q44 12 80.5 30.5t59.5 38.5t40.5 40.5t26 39t14 33t6.5 22.5l1 9q-45 -6 -89 25t-44 102 q0 56 39.5 91.5t89.5 35.5q66 0 105.5 -44t39.5 -122q0 -137 -90.5 -243t-228.5 -131z" />
<glyph unicode="&#x2022;" horiz-adv-x="669" d="M147 612q0 83 53 138t130 55q83 0 137.5 -55t54.5 -138q0 -77 -54.5 -129.5t-137.5 -52.5q-77 0 -130 53t-53 129z" />
<glyph unicode="&#x2026;" horiz-adv-x="1447" d="M90 100q0 58 37 97t94 39q58 0 96.5 -39.5t38.5 -96.5q0 -56 -38.5 -93.5t-96.5 -37.5q-57 0 -94 37.5t-37 93.5zM598 100q0 58 37 97t94 39q58 0 96.5 -39.5t38.5 -96.5q0 -56 -38.5 -93.5t-96.5 -37.5q-57 0 -94 37.5t-37 93.5zM1087 100q0 57 37.5 96.5t94.5 39.5 q58 0 96.5 -39.5t38.5 -96.5q0 -56 -38.5 -93.5t-96.5 -37.5q-57 0 -94.5 37.5t-37.5 93.5z" />
<glyph unicode="&#x202f;" horiz-adv-x="374" />
<glyph unicode="&#x2039;" horiz-adv-x="598" d="M86 508v14l383 348l82 -104l-275 -244v-12l277 -264l-90 -103z" />
<glyph unicode="&#x203a;" horiz-adv-x="591" d="M45 768l90 100l371 -364v-15l-377 -348l-82 103l264 245v15z" />
<glyph unicode="&#x205f;" horiz-adv-x="467" />
<glyph unicode="&#x20ac;" horiz-adv-x="1214" d="M55 481l31 133h156q-3 92 0 185h-187l31 133h158q0 41 2 59q4 118 42.5 210t102 148.5t144.5 85.5t174 29q190 0 304 -110t107 -289l-164 -10q-2 113 -65.5 184.5t-181.5 71.5q-121 0 -197 -84t-82 -236q-2 -20 -2 -59h459l-21 -133h-440q-3 -89 0 -185h420l-21 -133 h-397q0 -8 1 -24.5t1 -24.5q4 -144 81 -226.5t198 -82.5q117 0 183.5 69.5t70.5 196.5l163 -10q7 -189 -106.5 -299.5t-310.5 -110.5q-199 0 -327.5 121.5t-135.5 339.5q-2 16 -2 51h-189z" />
<glyph unicode="&#x2122;" horiz-adv-x="1488" d="M-6 1321v113h606v-113h-231v-625h-144v625h-231zM696 696v738h125l240 -400l260 400h123v-738h-144v527l-231 -355h-27l-213 351v-523h-133z" />
<glyph unicode="&#x25fc;" horiz-adv-x="993" d="M0 0v993h993v-993h-993z" />
</font>
</defs>
</svg>
